<svg xmlns="http://www.w3.org/2000/svg" width="479" height="178" viewBox="-0.5 -0.5 479 178"><g stroke-width="2"><path d="M268.13 149.75H0" fill="none" stroke="gray" stroke-miterlimit="10" pointer-events="stroke"/><path d="M365.63 123.5H390M268.13 97.25h28.03m-28.03 52.5h28.03M280.31 71c13.07 32.49 13.07 72.51 0 105" fill="none" stroke="#666" stroke-miterlimit="10" pointer-events="all"/><path d="M316.88 71c21.28.98 40.29 21.44 48.75 52.5-8.46 31.06-27.47 51.52-48.75 52.5h-30.47c13.06-32.49 13.06-72.51 0-105Z" fill="#f5f5f5" stroke="#666" stroke-miterlimit="10" pointer-events="all"/><path d="M121.88 53.5H195v43.83l73.13-.08" fill="none" stroke="gray" stroke-miterlimit="10" pointer-events="stroke"/><path d="M0 53.5h24.38m78 0h19.5m-28.04 0L20.72 106V1Z" fill="#f5f5f5" stroke="#666" stroke-miterlimit="10" pointer-events="all"/><ellipse cx="98.72" cy="53.5" rx="4.875" ry="7" fill="#f5f5f5" stroke="#666" pointer-events="all"/><path d="M390 123.5h85.31" fill="none" stroke="gray" stroke-miterlimit="10" pointer-events="stroke"/></g></svg>