<svg data-name="Layer 1" xmlns="http://www.w3.org/2000/svg" viewBox="0 0 1920 1080"><defs><linearGradient id="a" x1="182.13" y1="1355.48" x2="164.98" y2="1300.1" gradientTransform="translate(0 -1048)" gradientUnits="userSpaceOnUse"><stop offset="0" stop-color="#512"/><stop offset=".23" stop-color="#523"/><stop offset=".36" stop-color="#534"/><stop offset=".51" stop-color="#645"/><stop offset=".66" stop-color="#568"/><stop offset=".84" stop-color="#29d"/></linearGradient><linearGradient id="b" x1="319.25" y1="736.77" x2="128.8" y2="783.54" gradientTransform="matrix(1 0 0 -1 0 1082)" gradientUnits="userSpaceOnUse"><stop offset=".08" stop-color="#c33"/><stop offset=".19" stop-color="#de5239"/><stop offset=".31" stop-color="#f06e3e"/><stop offset=".42" stop-color="#fa8042"/><stop offset=".5" stop-color="#fe8643"/><stop offset=".58" stop-color="#fa7f42"/><stop offset=".7" stop-color="#ef6c3e"/><stop offset=".83" stop-color="#dc4c37"/><stop offset=".92" stop-color="#cf3633"/></linearGradient><linearGradient id="c" x1="724.18" y1="855.19" x2="625.82" y2="684.81" gradientUnits="userSpaceOnUse"><stop offset="0" stop-color="#f7941e"/><stop offset="1" stop-color="#f5c037"/></linearGradient><linearGradient id="d" x1="488.81" y1="460.56" x2="557.25" y2="579.11" gradientUnits="userSpaceOnUse"><stop offset="0" stop-color="#00aeef"/><stop offset="1" stop-color="#1a80c9"/></linearGradient></defs><path d="M10.38 872a18 18 0 0 0 17.83 18.2h294.33a18 18 0 0 0 17.84-18.2V498.83h-330Z" style="fill:#4d4d4d;stroke:#585858;stroke-miterlimit:10"/><path d="M322.54 465.84H28.21A18 18 0 0 0 10.38 484v15.17h330V484a18 18 0 0 0-17.84-18.16Z" style="fill:#ccc;stroke:#585858;stroke-miterlimit:10"/><ellipse cx="262.34" cy="483.28" rx="7.43" ry="7.59" style="fill:#d7df21;stroke:#585858;stroke-miterlimit:10"/><ellipse cx="320.31" cy="483.28" rx="7.43" ry="7.59" style="fill:#f7941e;stroke:#585858;stroke-miterlimit:10"/><ellipse cx="291.32" cy="483.28" rx="7.43" ry="7.59" style="fill:#00aeef;stroke:#585858;stroke-miterlimit:10"/><path d="M23 527.65h11.9a7.52 7.52 0 0 1 7.44 7.59 7.51 7.51 0 0 1-7.44 7.58H23a7.51 7.51 0 0 1-7.43-7.58 7.51 7.51 0 0 1 7.43-7.59Zm0 22.76h11.9a7.51 7.51 0 0 1 7.44 7.59 7.52 7.52 0 0 1-7.44 7.59H23a7.51 7.51 0 0 1-7.42-7.59 7.51 7.51 0 0 1 7.42-7.59Zm0 22.75h11.9a7.52 7.52 0 0 1 7.44 7.59 7.51 7.51 0 0 1-7.44 7.58H23a7.51 7.51 0 0 1-7.43-7.58 7.51 7.51 0 0 1 7.43-7.59Zm0 22.76h11.9a7.51 7.51 0 0 1 7.44 7.58 7.52 7.52 0 0 1-7.44 7.59H23a7.51 7.51 0 0 1-7.43-7.59 7.51 7.51 0 0 1 7.43-7.58Zm0 22.75h11.9a7.52 7.52 0 0 1 7.44 7.59 7.52 7.52 0 0 1-7.44 7.59H23a7.51 7.51 0 0 1-7.43-7.59 7.51 7.51 0 0 1 7.43-7.59Zm0 22.76h11.9a7.52 7.52 0 0 1 7.44 7.57 7.51 7.51 0 0 1-7.44 7.58H23a7.51 7.51 0 0 1-7.42-7.58 7.51 7.51 0 0 1 7.42-7.57Zm0 22.76h11.9a7.51 7.51 0 0 1 7.44 7.58 7.52 7.52 0 0 1-7.44 7.59H23a7.51 7.51 0 0 1-7.43-7.59 7.51 7.51 0 0 1 7.43-7.58Zm0 22.75h11.9a7.52 7.52 0 0 1 7.44 7.59 7.51 7.51 0 0 1-7.44 7.58H23a7.51 7.51 0 0 1-7.43-7.58 7.51 7.51 0 0 1 7.43-7.59Zm0 22.76h11.9a7.51 7.51 0 0 1 7.44 7.58 7.52 7.52 0 0 1-7.44 7.59H23a7.51 7.51 0 0 1-7.43-7.59A7.51 7.51 0 0 1 23 709.7Zm0 22.75h11.9a7.52 7.52 0 0 1 7.44 7.55 7.51 7.51 0 0 1-7.44 7.58H23a7.51 7.51 0 0 1-7.42-7.58 7.51 7.51 0 0 1 7.42-7.55Zm0 22.76h11.9a7.51 7.51 0 0 1 7.44 7.58 7.52 7.52 0 0 1-7.44 7.59H23a7.51 7.51 0 0 1-7.43-7.59 7.51 7.51 0 0 1 7.43-7.58ZM23 778h11.9a7.52 7.52 0 0 1 7.44 7.59 7.51 7.51 0 0 1-7.44 7.58H23a7.51 7.51 0 0 1-7.43-7.58A7.51 7.51 0 0 1 23 778Zm0 22.72h11.9a7.51 7.51 0 0 1 7.44 7.58 7.52 7.52 0 0 1-7.44 7.59H23a7.51 7.51 0 0 1-7.43-7.59 7.51 7.51 0 0 1 7.43-7.58Zm0 22.75h11.9a7.52 7.52 0 0 1 7.44 7.59 7.51 7.51 0 0 1-7.44 7.58H23a7.51 7.51 0 0 1-7.43-7.58 7.51 7.51 0 0 1 7.43-7.59Zm0 22.76h11.9a7.51 7.51 0 0 1 7.44 7.58 7.52 7.52 0 0 1-7.44 7.59H23a7.51 7.51 0 0 1-7.43-7.59 7.51 7.51 0 0 1 7.43-7.58Z" style="fill:#f2f2f2"/><path d="M66.12 527.27h59.46a7.51 7.51 0 0 1 7.43 7.59 7.51 7.51 0 0 1-7.43 7.58H66.12a7.51 7.51 0 0 1-7.43-7.58 7.51 7.51 0 0 1 7.43-7.59Z" style="fill:#d7df21"/><path d="M66.12 550h59.46a7.51 7.51 0 0 1 7.43 7.58 7.51 7.51 0 0 1-7.43 7.59H66.12a7.51 7.51 0 0 1-7.43-7.59 7.51 7.51 0 0 1 7.43-7.58Z" style="fill:#f7941e"/><path d="M94.36 572.79h59.46a7.51 7.51 0 0 1 7.44 7.58 7.52 7.52 0 0 1-7.44 7.59H94.36a7.51 7.51 0 0 1-7.43-7.59 7.51 7.51 0 0 1 7.43-7.58Z" style="fill:#f6d06c"/><path d="M94.36 595.54h59.46a7.52 7.52 0 0 1 7.44 7.59 7.51 7.51 0 0 1-7.44 7.58H94.36a7.51 7.51 0 0 1-7.43-7.58 7.51 7.51 0 0 1 7.43-7.59Z" style="fill:#f7941e"/><path d="M139 619.81h118.88a7.51 7.51 0 0 1 7.43 7.59 7.51 7.51 0 0 1-7.43 7.58H139a7.5 7.5 0 0 1-7.43-7.58 7.51 7.51 0 0 1 7.43-7.59Z" style="fill:#f6d06c"/><path d="M60.17 641.05h59.46a7.52 7.52 0 0 1 7.44 7.59 7.51 7.51 0 0 1-7.44 7.58H60.17a7.51 7.51 0 0 1-7.43-7.58 7.51 7.51 0 0 1 7.43-7.59Z" style="fill:#1a80c9"/><path d="M60.17 665.32h59.46a7.52 7.52 0 0 1 7.44 7.59 7.51 7.51 0 0 1-7.44 7.58H60.17a7.51 7.51 0 0 1-7.43-7.58 7.51 7.51 0 0 1 7.43-7.59Z" style="fill:#f6d06c"/><path d="M146.39 686.56h59.46a7.51 7.51 0 0 1 7.43 7.59 7.51 7.51 0 0 1-7.43 7.58h-59.46a7.51 7.51 0 0 1-7.43-7.58 7.51 7.51 0 0 1 7.43-7.59Z" style="fill:#1a80c9"/><path d="M94.36 709.32h59.46a7.51 7.51 0 0 1 7.44 7.58 7.52 7.52 0 0 1-7.44 7.59H94.36a7.51 7.51 0 0 1-7.43-7.59 7.51 7.51 0 0 1 7.43-7.58Z" style="fill:#f7941e"/><path d="M60.17 732.07h59.46a7.52 7.52 0 0 1 7.44 7.59 7.51 7.51 0 0 1-7.44 7.58H60.17a7.51 7.51 0 0 1-7.43-7.58 7.51 7.51 0 0 1 7.43-7.59Z" style="fill:#6dcff6"/><path d="M60.17 754.83h59.46a7.51 7.51 0 0 1 7.44 7.58 7.52 7.52 0 0 1-7.44 7.59H60.17a7.51 7.51 0 0 1-7.43-7.59 7.51 7.51 0 0 1 7.43-7.58Z" style="fill:#d7df21"/><path d="M60.17 777.58h59.46a7.52 7.52 0 0 1 7.44 7.59 7.51 7.51 0 0 1-7.44 7.58H60.17a7.51 7.51 0 0 1-7.43-7.58 7.51 7.51 0 0 1 7.43-7.59Z" style="fill:#f6d06c"/><path d="M60.17 800.34h59.46a7.51 7.51 0 0 1 7.44 7.58 7.52 7.52 0 0 1-7.44 7.59H60.17a7.51 7.51 0 0 1-7.43-7.59 7.51 7.51 0 0 1 7.43-7.58Z" style="fill:#f7941e"/><path d="M94.36 823.09h59.46a7.52 7.52 0 0 1 7.44 7.59 7.51 7.51 0 0 1-7.44 7.58H94.36a7.51 7.51 0 0 1-7.43-7.58 7.51 7.51 0 0 1 7.43-7.59Z" style="fill:#1a80c9"/><path d="M60.17 845.85h59.46a7.51 7.51 0 0 1 7.44 7.58 7.52 7.52 0 0 1-7.44 7.59H60.17a7.51 7.51 0 0 1-7.43-7.59 7.51 7.51 0 0 1 7.43-7.58Z" style="fill:#f7941e"/><path d="M147.88 527.27h133.78a7.51 7.51 0 0 1 7.43 7.59 7.5 7.5 0 0 1-7.43 7.58H147.88a7.51 7.51 0 0 1-7.44-7.58 7.52 7.52 0 0 1 7.44-7.59Z" style="fill:#1a80c9"/><path d="M176.12 709.32H309.9a7.51 7.51 0 0 1 7.44 7.58 7.52 7.52 0 0 1-7.44 7.59H176.12a7.51 7.51 0 0 1-7.43-7.59 7.51 7.51 0 0 1 7.43-7.58Z" style="fill:#f6d06c"/><path d="M140.44 754.83h133.79a7.51 7.51 0 0 1 7.43 7.58 7.51 7.51 0 0 1-7.43 7.59H140.44a7.51 7.51 0 0 1-7.43-7.59 7.51 7.51 0 0 1 7.43-7.58Z" style="fill:#f7941e"/><path d="M140.44 845.85h89.19a7.51 7.51 0 0 1 7.44 7.58 7.52 7.52 0 0 1-7.44 7.59h-89.19a7.51 7.51 0 0 1-7.43-7.59 7.51 7.51 0 0 1 7.43-7.58Z" style="fill:#f6d06c"/><path d="M94.36 686.56h29.73a7.52 7.52 0 0 1 7.44 7.59 7.51 7.51 0 0 1-7.44 7.58H94.36a7.51 7.51 0 0 1-7.43-7.58 7.51 7.51 0 0 1 7.43-7.59Z" style="fill:#d7df21"/><path d="M140.44 779.1h59.46a7.52 7.52 0 0 1 7.44 7.59 7.51 7.51 0 0 1-7.44 7.58h-59.46a7.51 7.51 0 0 1-7.43-7.58 7.51 7.51 0 0 1 7.43-7.59Z" style="fill:#6dcff6"/><path d="M139 641.05h59.46a7.51 7.51 0 0 1 7.43 7.59 7.51 7.51 0 0 1-7.43 7.58H139a7.5 7.5 0 0 1-7.43-7.58 7.51 7.51 0 0 1 7.43-7.59Z" style="fill:#f7941e"/><path d="M173.15 595.54h118.92a7.51 7.51 0 0 1 7.43 7.59 7.51 7.51 0 0 1-7.43 7.58H173.15a7.51 7.51 0 0 1-7.44-7.58 7.52 7.52 0 0 1 7.44-7.59Zm0-22.75h89.19a7.51 7.51 0 0 1 7.43 7.58 7.51 7.51 0 0 1-7.43 7.59h-89.19a7.52 7.52 0 0 1-7.44-7.59 7.51 7.51 0 0 1 7.44-7.58Z" style="fill:#6dcff6"/><path d="M139 665.32h29.73a7.51 7.51 0 0 1 7.43 7.59 7.51 7.51 0 0 1-7.43 7.58H139a7.5 7.5 0 0 1-7.43-7.58 7.51 7.51 0 0 1 7.43-7.59Z" style="fill:#d7df21"/><path d="M140.44 732.07h118.92a7.52 7.52 0 0 1 7.44 7.59 7.51 7.51 0 0 1-7.44 7.58H140.44a7.51 7.51 0 0 1-7.43-7.58 7.51 7.51 0 0 1 7.43-7.59Z" style="fill:#1a80c9"/><path d="M139 800.34h133.74a7.5 7.5 0 0 1 7.43 7.58 7.51 7.51 0 0 1-7.43 7.59H139a7.51 7.51 0 0 1-7.43-7.59 7.5 7.5 0 0 1 7.43-7.58Z" style="fill:#6dcff6"/><path d="M176.12 823.09h59.46a7.51 7.51 0 0 1 7.43 7.59 7.51 7.51 0 0 1-7.43 7.58h-59.46a7.51 7.51 0 0 1-7.43-7.58 7.51 7.51 0 0 1 7.43-7.59Z" style="fill:#d7df21"/><path d="m26.84 329.09 84.56-31.38A209.13 209.13 0 0 1 140.26 269c7-3.41 20.16-1.56 44.24-29 23.34-26.8 30.77-49.7 41.7-49.7 17.29 0 30 34.3 49.33 86.25a1072.43 1072.43 0 0 0 48.38 116.64c-20.16-17.25-37.34-35.86-57-35.37-18.25.39-38.52 20.27-60.69 45.8C188.64 424 165.3 438 156.17 437.74c0 0-23.55-61.19-43.28-71.13a30.16 30.16 0 0 0-25.36 1.95L26.84 329Z" style="fill:#49d"/><path d="M215.69 197.24c-7.11 8.77-15.7 24.85-31.19 42.68-24.08 27.48-37.13 25.63-44.24 29a199.6 199.6 0 0 0-28.86 28.75l35 23.48c29.71-37.22 45.62-77.57 58-103.68a129.27 129.27 0 0 1 11.29-20.23Z" style="fill:url(#a)"/><path d="M226.3 190.22c-23.13 0-38.93 111.87-124.34 174.34 24-3.61 44.77 51.06 54.32 73.18 42.44-6.62 76.39-81.17 110.66-80 19.63.68 36.81 18.12 57 35.37-46.07-88.87-67.61-202.89-97.64-202.89Z" style="fill:url(#b)"/><path d="M1417 686.83a92.86 92.86 0 0 0-74.73-68.32 92.85 92.85 0 0 0-51.79-93.75 93.66 93.66 0 0 0-40.51-9.27 93.08 93.08 0 0 0-71.43 33.51 92.82 92.82 0 0 0-148 40.81H1028a92.83 92.83 0 0 0-40.38 176.36 93.07 93.07 0 0 0 54 8.27 95 95 0 0 0 5.71 8.37 91.81 91.81 0 0 0 33.29 27.19 93.66 93.66 0 0 0 40.52 9.26 92.88 92.88 0 0 0 23.31-3c.84 1.21 1.7 2.39 2.55 3.51a91.81 91.81 0 0 0 33.28 27.23 93.66 93.66 0 0 0 40.52 9.26 92.82 92.82 0 0 0 85-55.81 93.69 93.69 0 0 0 21.3 2.46 92.86 92.86 0 0 0 89.8-116Zm-2.8 34.86a87.85 87.85 0 0 1-87 76.22 88.41 88.41 0 0 1-22.2-2.81l-2.1-.55-.82 2a87.85 87.85 0 0 1-151.15 20.2 90.95 90.95 0 0 1-3.36-4.72l-1-1.51-1.74.49a87.73 87.73 0 0 1-23.7 3.26 87.26 87.26 0 0 1-69.85-34.5 90 90 0 0 1-6.24-9.31l-.86-1.48-1.69.28a88.54 88.54 0 0 1-14.37 1.18 87.84 87.84 0 1 1-.13-175.68c1.39 0 2.8 0 4.19.1l1.91.09.58-1.82a87.84 87.84 0 0 1 142.5-38.7l2 1.78 1.64-2.09a88.35 88.35 0 0 1 15.83-15.62A87.84 87.84 0 0 1 1337 620.26l-.33 2.46 2.45.34a87.85 87.85 0 0 1 75 98.63Z"/><text transform="translate(1116.97 664.51)" style="font-size:61.62393569946289px;font-family:Helvetica">HD<tspan x="89.01" y="0" style="letter-spacing:-.036622712308910406em">L</tspan><tspan x="-23.41" y="73.95">Coder</tspan></text><path d="M1580.38 872.24a17.9 17.9 0 0 0 17.83 18h294.33a17.91 17.91 0 0 0 17.84-18V503.72h-330Z" style="fill:#4d4d4d;stroke:#585858;stroke-miterlimit:10"/><path d="M1892.54 471.13h-294.33a17.9 17.9 0 0 0-17.83 18v15h330v-15a17.91 17.91 0 0 0-17.84-18Z" style="fill:#ccc;stroke:#585858;stroke-miterlimit:10"/><ellipse cx="1832.34" cy="488.36" rx="7.43" ry="7.49" style="fill:#d7df21;stroke:#585858;stroke-miterlimit:10"/><ellipse cx="1890.31" cy="488.36" rx="7.43" ry="7.49" style="fill:#f7941e;stroke:#585858;stroke-miterlimit:10"/><ellipse cx="1861.32" cy="488.36" rx="7.43" ry="7.49" style="fill:#00aeef;stroke:#585858;stroke-miterlimit:10"/><path d="M1593 532.18h11.89a7.46 7.46 0 0 1 7.44 7.49 7.46 7.46 0 0 1-7.44 7.49H1593a7.46 7.46 0 0 1-7.43-7.49 7.46 7.46 0 0 1 7.43-7.49Zm0 22.47h11.89a7.46 7.46 0 0 1 7.44 7.49 7.46 7.46 0 0 1-7.44 7.49H1593a7.46 7.46 0 0 1-7.43-7.49 7.46 7.46 0 0 1 7.43-7.49Zm0 22.47h11.89a7.47 7.47 0 0 1 7.44 7.49 7.46 7.46 0 0 1-7.44 7.49H1593a7.46 7.46 0 0 1-7.43-7.49 7.47 7.47 0 0 1 7.43-7.49Zm0 22.47h11.89a7.47 7.47 0 0 1 7.44 7.49 7.46 7.46 0 0 1-7.44 7.49H1593a7.46 7.46 0 0 1-7.43-7.49 7.47 7.47 0 0 1 7.43-7.49Zm0 22.48h11.89a7.46 7.46 0 0 1 7.44 7.49 7.47 7.47 0 0 1-7.44 7.49H1593a7.47 7.47 0 0 1-7.43-7.49 7.46 7.46 0 0 1 7.43-7.49Zm0 22.47h11.89a7.46 7.46 0 0 1 7.44 7.49 7.47 7.47 0 0 1-7.44 7.49H1593a7.47 7.47 0 0 1-7.43-7.49 7.46 7.46 0 0 1 7.43-7.49Zm0 22.46h11.89a7.46 7.46 0 0 1 7.44 7.49 7.47 7.47 0 0 1-7.44 7.49H1593a7.47 7.47 0 0 1-7.43-7.49A7.46 7.46 0 0 1 1593 667Zm0 22.48h11.89a7.46 7.46 0 0 1 7.44 7.49 7.46 7.46 0 0 1-7.44 7.49H1593a7.46 7.46 0 0 1-7.43-7.49 7.46 7.46 0 0 1 7.43-7.49Zm0 22.52h11.89a7.46 7.46 0 0 1 7.44 7.49 7.46 7.46 0 0 1-7.44 7.49H1593a7.46 7.46 0 0 1-7.43-7.49A7.46 7.46 0 0 1 1593 712Zm0 22.42h11.89a7.46 7.46 0 0 1 7.44 7.49 7.46 7.46 0 0 1-7.44 7.49H1593a7.46 7.46 0 0 1-7.43-7.49 7.46 7.46 0 0 1 7.43-7.49Zm0 22.47h11.89a7.47 7.47 0 0 1 7.44 7.49 7.46 7.46 0 0 1-7.44 7.49H1593a7.46 7.46 0 0 1-7.43-7.49 7.47 7.47 0 0 1 7.43-7.49Zm0 22.47h11.89a7.47 7.47 0 0 1 7.44 7.49 7.46 7.46 0 0 1-7.44 7.49H1593a7.46 7.46 0 0 1-7.43-7.49 7.47 7.47 0 0 1 7.43-7.49Zm0 22.47h11.89a7.47 7.47 0 0 1 7.44 7.5 7.47 7.47 0 0 1-7.44 7.49H1593a7.47 7.47 0 0 1-7.43-7.49 7.47 7.47 0 0 1 7.43-7.5Zm0 22.48h11.89a7.46 7.46 0 0 1 7.44 7.49 7.47 7.47 0 0 1-7.44 7.49H1593a7.47 7.47 0 0 1-7.43-7.49 7.46 7.46 0 0 1 7.43-7.49Zm0 22.47h11.89a7.46 7.46 0 0 1 7.44 7.49 7.47 7.47 0 0 1-7.44 7.49H1593a7.47 7.47 0 0 1-7.43-7.49 7.46 7.46 0 0 1 7.43-7.49Z" style="fill:#f2f2f2"/><path d="M1636.12 531.81h59.46a7.46 7.46 0 0 1 7.43 7.49 7.47 7.47 0 0 1-7.43 7.49h-59.46a7.47 7.47 0 0 1-7.43-7.49 7.46 7.46 0 0 1 7.43-7.49Z" style="fill:#d7df21"/><path d="M1636.12 554.28h59.46a7.46 7.46 0 0 1 7.43 7.49 7.47 7.47 0 0 1-7.43 7.49h-59.46a7.47 7.47 0 0 1-7.43-7.49 7.46 7.46 0 0 1 7.43-7.49Z" style="fill:#f7941e"/><path d="M1664.36 576.75h59.46a7.46 7.46 0 0 1 7.44 7.49 7.46 7.46 0 0 1-7.44 7.49h-59.46a7.46 7.46 0 0 1-7.43-7.49 7.46 7.46 0 0 1 7.43-7.49Z" style="fill:#f6d06c"/><path d="M1664.36 599.22h59.46a7.46 7.46 0 0 1 7.44 7.49 7.46 7.46 0 0 1-7.44 7.49h-59.46a7.46 7.46 0 0 1-7.43-7.49 7.46 7.46 0 0 1 7.43-7.49Z" style="fill:#f7941e"/><path d="M1709 623.19h118.92a7.46 7.46 0 0 1 7.43 7.49 7.46 7.46 0 0 1-7.43 7.49H1709a7.45 7.45 0 0 1-7.43-7.49 7.45 7.45 0 0 1 7.43-7.49Z" style="fill:#f6d06c"/><path d="M1630.17 644.16h59.46a7.47 7.47 0 0 1 7.44 7.49 7.46 7.46 0 0 1-7.44 7.49h-59.46a7.46 7.46 0 0 1-7.43-7.49 7.47 7.47 0 0 1 7.43-7.49Z" style="fill:#1a80c9"/><path d="M1630.17 668.13h59.46a7.46 7.46 0 0 1 7.44 7.49 7.46 7.46 0 0 1-7.44 7.49h-59.46a7.46 7.46 0 0 1-7.43-7.49 7.46 7.46 0 0 1 7.43-7.49Z" style="fill:#f6d06c"/><path d="M1716.39 689.1h59.46a7.47 7.47 0 0 1 7.43 7.49 7.47 7.47 0 0 1-7.43 7.5h-59.46a7.47 7.47 0 0 1-7.43-7.5 7.47 7.47 0 0 1 7.43-7.49Z" style="fill:#1a80c9"/><path d="M1664.36 711.58h59.46a7.46 7.46 0 0 1 7.44 7.49 7.47 7.47 0 0 1-7.44 7.49h-59.46a7.47 7.47 0 0 1-7.43-7.49 7.46 7.46 0 0 1 7.43-7.49Z" style="fill:#f7941e"/><path d="M1630.17 734.05h59.46a7.46 7.46 0 0 1 7.44 7.49 7.47 7.47 0 0 1-7.44 7.49h-59.46a7.47 7.47 0 0 1-7.43-7.49 7.46 7.46 0 0 1 7.43-7.49Z" style="fill:#6dcff6"/><path d="M1630.17 756.52h59.46a7.46 7.46 0 0 1 7.44 7.49 7.46 7.46 0 0 1-7.44 7.49h-59.46a7.46 7.46 0 0 1-7.43-7.49 7.46 7.46 0 0 1 7.43-7.49Z" style="fill:#d7df21"/><path d="M1630.17 779h59.46a7.46 7.46 0 0 1 7.44 7.49 7.46 7.46 0 0 1-7.44 7.49h-59.46a7.46 7.46 0 0 1-7.43-7.49 7.46 7.46 0 0 1 7.43-7.49Z" style="fill:#f6d06c"/><path d="M1630.17 801.46h59.46a7.46 7.46 0 0 1 7.44 7.49 7.46 7.46 0 0 1-7.44 7.49h-59.46a7.46 7.46 0 0 1-7.43-7.49 7.46 7.46 0 0 1 7.43-7.49Z" style="fill:#f7941e"/><path d="M1664.36 823.93h59.46a7.47 7.47 0 0 1 7.44 7.49 7.46 7.46 0 0 1-7.44 7.49h-59.46a7.46 7.46 0 0 1-7.43-7.49 7.47 7.47 0 0 1 7.43-7.49Z" style="fill:#1a80c9"/><path d="M1630.17 846.4h59.46a7.47 7.47 0 0 1 7.44 7.49 7.46 7.46 0 0 1-7.44 7.49h-59.46a7.46 7.46 0 0 1-7.43-7.49 7.47 7.47 0 0 1 7.43-7.49Z" style="fill:#f7941e"/><path d="M1717.88 531.81h133.78a7.45 7.45 0 0 1 7.43 7.49 7.46 7.46 0 0 1-7.43 7.49h-133.78a7.47 7.47 0 0 1-7.44-7.49 7.46 7.46 0 0 1 7.44-7.49Z" style="fill:#1a80c9"/><path d="M1746.12 711.58h133.78a7.46 7.46 0 0 1 7.44 7.49 7.47 7.47 0 0 1-7.44 7.49h-133.78a7.47 7.47 0 0 1-7.43-7.49 7.46 7.46 0 0 1 7.43-7.49Z" style="fill:#f6d06c"/><path d="M1710.44 756.52h133.79a7.46 7.46 0 0 1 7.43 7.49 7.46 7.46 0 0 1-7.43 7.49h-133.79a7.46 7.46 0 0 1-7.44-7.5 7.46 7.46 0 0 1 7.44-7.48Z" style="fill:#f7941e"/><path d="M1710.44 846.4h89.19a7.47 7.47 0 0 1 7.44 7.49 7.46 7.46 0 0 1-7.44 7.49h-89.19a7.46 7.46 0 0 1-7.43-7.49 7.47 7.47 0 0 1 7.43-7.49Z" style="fill:#f6d06c"/><path d="M1664.36 689.1h29.73a7.47 7.47 0 0 1 7.44 7.49 7.47 7.47 0 0 1-7.44 7.5h-29.73a7.47 7.47 0 0 1-7.43-7.5 7.47 7.47 0 0 1 7.43-7.49Z" style="fill:#d7df21"/><path d="M1710.44 780.49h59.46a7.46 7.46 0 0 1 7.44 7.49 7.47 7.47 0 0 1-7.44 7.49h-59.46A7.47 7.47 0 0 1 1703 788a7.46 7.46 0 0 1 7.44-7.51Z" style="fill:#6dcff6"/><path d="M1709 644.16h59.46a7.47 7.47 0 0 1 7.43 7.49 7.46 7.46 0 0 1-7.43 7.49H1709a7.45 7.45 0 0 1-7.43-7.49 7.46 7.46 0 0 1 7.43-7.49Z" style="fill:#f7941e"/><path d="M1743.15 599.22h118.92a7.46 7.46 0 0 1 7.43 7.49 7.46 7.46 0 0 1-7.43 7.49h-118.92a7.46 7.46 0 0 1-7.44-7.49 7.46 7.46 0 0 1 7.44-7.49Zm0-22.47h89.19a7.46 7.46 0 0 1 7.43 7.49 7.46 7.46 0 0 1-7.43 7.49h-89.19a7.46 7.46 0 0 1-7.44-7.49 7.46 7.46 0 0 1 7.44-7.49Z" style="fill:#6dcff6"/><path d="M1709 668.13h29.73a7.46 7.46 0 0 1 7.43 7.49 7.46 7.46 0 0 1-7.43 7.49H1709a7.45 7.45 0 0 1-7.43-7.49 7.45 7.45 0 0 1 7.43-7.49Z" style="fill:#d7df21"/><path d="M1710.44 734.05h118.92a7.46 7.46 0 0 1 7.44 7.49 7.47 7.47 0 0 1-7.44 7.49h-118.92a7.47 7.47 0 0 1-7.43-7.49 7.46 7.46 0 0 1 7.43-7.49Z" style="fill:#1a80c9"/><path d="M1709 801.46h133.78a7.45 7.45 0 0 1 7.43 7.49 7.45 7.45 0 0 1-7.43 7.49H1709a7.45 7.45 0 0 1-7.43-7.49 7.45 7.45 0 0 1 7.43-7.49Z" style="fill:#6dcff6"/><path d="M1746.12 823.93h59.46a7.47 7.47 0 0 1 7.43 7.49 7.46 7.46 0 0 1-7.43 7.49h-59.46a7.46 7.46 0 0 1-7.43-7.49 7.47 7.47 0 0 1 7.43-7.49Z" style="fill:#d7df21"/><g data-name="IC outline"><rect x="1645.33" y="213.54" width="206.13" height="207.73" rx="11.64" style="fill:#4d4d4d;stroke:#666;stroke-miterlimit:10;stroke-width:4px"/><path style="fill:#4d4d4d;stroke:#666;stroke-miterlimit:10;stroke-width:4px" d="m1646.86 227.01-22.55-.02m22.55 180.7-22.55-.02m22.55-22.7-22.55-.02m22.55-22.7-22.55-.02m22.55-22.7-22.55-.02m22.55-21.62-22.55-.02m22.55-22.7-22.55-.02m22.55-22.7-22.55-.02m22.55-22.7-22.55-.02m213.64-37.85-.09-21.64m-178.12 22.72-.1-22.72m21.57 22.72-.09-22.72m22.64 22.72-.1-22.72m22.64 22.72-.09-22.72m22.64 22.72-.1-22.72m22.64 22.72-.09-22.72m21.56 21.64-.09-21.64m22.64 21.64-.1-21.64m-153.42 230.46-.02 22.72m178.23-22.72-.02 22.72m-22.53-22.72-.02 22.72m-22.52-22.72-.02 22.72m-21.45-22.72-.02 22.72m-22.53-22.72-.02 22.72m-22.52-22.72-.02 22.72m-22.53-22.72-.02 22.72m-22.52-22.72-.02 22.72m169.64-37.87 22.55.02m-22.55-179.62 22.55.02m-22.55 22.7 22.55.02m-22.55 21.62 22.55.02m-22.55 22.7 22.55.02m-22.55 22.7 22.55.02m-22.55 22.7 22.55.02m-22.55 22.7 22.55.02m-22.55 21.62 22.55.02"/></g><ellipse cx="1816.81" cy="244.9" rx="18.58" ry="18.73" style="fill:#999;stroke:#666;stroke-miterlimit:10;stroke-width:4px"/><path style="fill:none;stroke:gray;stroke-miterlimit:10;stroke-width:20px" d="m350.31 679.55 83.34.26"/><path d="M494 680c-28.43 10.45-63.72 28.32-85.62 47.29l17.35-47.5-17.05-47.61c21.78 19.11 56.96 37.2 85.32 47.82Z" style="fill:gray"/><path style="fill:none;stroke:#f7941e;stroke-linecap:round;stroke-linejoin:round;stroke-width:4px" d="M577 713h196v114H577z"/><path style="fill:url(#c)" d="M577 713h196v114H577z"/><path style="fill:none;stroke:#585858;stroke-linecap:round;stroke-linejoin:round;stroke-width:8px" d="M427 539h248m0 0v152.97"/><path style="fill:#585858" d="M699.3 688.71h-48.6L675 713l24.3-24.29z"/><path style="fill:none;stroke:#00aeef;stroke-linecap:round;stroke-linejoin:round;stroke-width:4px" d="m625.69 539.59-136.88-79.03v158.06l136.88-79.03z"/><path style="fill:url(#d)" d="m625.69 539.59-136.88-79.03v158.06l136.88-79.03z"/><path style="fill:none;stroke:gray;stroke-miterlimit:10;stroke-width:20px" d="m781.65 685.48 83.33.26"/><path d="M925.34 685.93c-28.43 10.44-63.73 28.31-85.63 47.29l17.36-47.51-17.07-47.6c21.79 19.11 57 37.2 85.34 47.82Z" style="fill:gray"/><path style="fill:none;stroke:gray;stroke-miterlimit:10;stroke-width:20px" d="m1431.65 701.48 83.33.26"/><path d="M1575.34 701.93c-28.43 10.44-63.73 28.31-85.63 47.29l17.36-47.51-17.07-47.6c21.79 19.11 57 37.2 85.34 47.82Z" style="fill:gray"/></svg>