<svg data-name="Layer 1" xmlns="http://www.w3.org/2000/svg" viewBox="0 0 1920 1080"><defs><linearGradient id="a" x1="181.75" y1="1418.93" x2="164.6" y2="1363.55" gradientTransform="translate(0 -1048)" gradientUnits="userSpaceOnUse"><stop offset="0" stop-color="#512"/><stop offset=".23" stop-color="#523"/><stop offset=".36" stop-color="#534"/><stop offset=".51" stop-color="#645"/><stop offset=".66" stop-color="#568"/><stop offset=".84" stop-color="#29d"/></linearGradient><linearGradient id="b" x1="318.88" y1="673.32" x2="128.42" y2="720.09" gradientTransform="matrix(1 0 0 -1 0 1082)" gradientUnits="userSpaceOnUse"><stop offset=".08" stop-color="#c33"/><stop offset=".19" stop-color="#de5239"/><stop offset=".31" stop-color="#f06e3e"/><stop offset=".42" stop-color="#fa8042"/><stop offset=".5" stop-color="#fe8643"/><stop offset=".58" stop-color="#fa7f42"/><stop offset=".7" stop-color="#ef6c3e"/><stop offset=".83" stop-color="#dc4c37"/><stop offset=".92" stop-color="#cf3633"/></linearGradient></defs><path d="M10 935.47a18 18 0 0 0 17.84 18.2h294.32a18 18 0 0 0 17.84-18.2V562.28H10Z" style="fill:#4d4d4d;stroke:#585858;stroke-miterlimit:10"/><path d="M322.16 529.29H27.84A18 18 0 0 0 10 547.49v15.17h330v-15.17a18 18 0 0 0-17.84-18.2Z" style="fill:#ccc;stroke:#585858;stroke-miterlimit:10"/><ellipse cx="261.96" cy="546.73" rx="7.43" ry="7.59" style="fill:#d7df21;stroke:#585858;stroke-miterlimit:10"/><ellipse cx="319.93" cy="546.73" rx="7.43" ry="7.59" style="fill:#f7941e;stroke:#585858;stroke-miterlimit:10"/><ellipse cx="290.95" cy="546.73" rx="7.43" ry="7.59" style="fill:#00aeef;stroke:#585858;stroke-miterlimit:10"/><path d="M22.64 591.1h11.89a7.51 7.51 0 0 1 7.47 7.59 7.51 7.51 0 0 1-7.43 7.58H22.64a7.51 7.51 0 0 1-7.44-7.58 7.52 7.52 0 0 1 7.44-7.59Zm0 22.76h11.89a7.51 7.51 0 0 1 7.47 7.58 7.51 7.51 0 0 1-7.47 7.56H22.64a7.52 7.52 0 0 1-7.44-7.59 7.51 7.51 0 0 1 7.44-7.55Zm0 22.75h11.89A7.51 7.51 0 0 1 42 644.2a7.51 7.51 0 0 1-7.43 7.58H22.64a7.51 7.51 0 0 1-7.44-7.58 7.52 7.52 0 0 1 7.44-7.59Zm0 22.76h11.89A7.51 7.51 0 0 1 42 667a7.51 7.51 0 0 1-7.43 7.58H22.64A7.51 7.51 0 0 1 15.2 667a7.52 7.52 0 0 1 7.44-7.63Zm0 22.76h11.89a7.51 7.51 0 0 1 7.47 7.58 7.51 7.51 0 0 1-7.43 7.59H22.64a7.52 7.52 0 0 1-7.44-7.59 7.51 7.51 0 0 1 7.44-7.58Zm0 22.75h11.89a7.51 7.51 0 0 1 7.47 7.59 7.51 7.51 0 0 1-7.43 7.58H22.64a7.51 7.51 0 0 1-7.44-7.58 7.52 7.52 0 0 1 7.44-7.59Zm0 22.76h11.89a7.51 7.51 0 0 1 7.47 7.58 7.51 7.51 0 0 1-7.43 7.59H22.64a7.52 7.52 0 0 1-7.44-7.59 7.51 7.51 0 0 1 7.44-7.58Zm0 22.75h11.89A7.51 7.51 0 0 1 42 758a7.51 7.51 0 0 1-7.43 7.58H22.64A7.51 7.51 0 0 1 15.2 758a7.52 7.52 0 0 1 7.44-7.61Zm0 22.76h11.89a7.51 7.51 0 0 1 7.47 7.58 7.51 7.51 0 0 1-7.43 7.59H22.64a7.52 7.52 0 0 1-7.44-7.59 7.51 7.51 0 0 1 7.44-7.58Zm0 22.75h11.89a7.51 7.51 0 0 1 7.47 7.59 7.51 7.51 0 0 1-7.43 7.58H22.64a7.51 7.51 0 0 1-7.44-7.58 7.52 7.52 0 0 1 7.44-7.59Zm0 22.76h11.89a7.51 7.51 0 0 1 7.47 7.58 7.51 7.51 0 0 1-7.43 7.59H22.64a7.52 7.52 0 0 1-7.44-7.59 7.51 7.51 0 0 1 7.44-7.58Zm0 22.75h11.89A7.51 7.51 0 0 1 42 849a7.51 7.51 0 0 1-7.43 7.58H22.64A7.51 7.51 0 0 1 15.2 849a7.52 7.52 0 0 1 7.44-7.59Zm0 22.76h11.89a7.51 7.51 0 0 1 7.47 7.58 7.51 7.51 0 0 1-7.43 7.59H22.64a7.52 7.52 0 0 1-7.44-7.59 7.51 7.51 0 0 1 7.44-7.58Zm0 22.75h11.89a7.51 7.51 0 0 1 7.47 7.59 7.51 7.51 0 0 1-7.43 7.58H22.64a7.51 7.51 0 0 1-7.44-7.58 7.52 7.52 0 0 1 7.44-7.59Zm0 22.76h11.89a7.51 7.51 0 0 1 7.47 7.58 7.51 7.51 0 0 1-7.43 7.59H22.64a7.52 7.52 0 0 1-7.44-7.59 7.51 7.51 0 0 1 7.44-7.58Z" style="fill:#f2f2f2"/><path d="M65.74 590.72h59.46a7.52 7.52 0 0 1 7.44 7.59 7.51 7.51 0 0 1-7.44 7.58H65.74a7.51 7.51 0 0 1-7.43-7.58 7.51 7.51 0 0 1 7.43-7.59Z" style="fill:#d7df21"/><path d="M65.74 613.48h59.46a7.52 7.52 0 0 1 7.44 7.59 7.51 7.51 0 0 1-7.44 7.58H65.74a7.51 7.51 0 0 1-7.43-7.58 7.51 7.51 0 0 1 7.43-7.59Z" style="fill:#f7941e"/><path d="M94 636.24h59.46a7.51 7.51 0 0 1 7.43 7.58 7.51 7.51 0 0 1-7.43 7.59H94a7.52 7.52 0 0 1-7.44-7.59 7.51 7.51 0 0 1 7.44-7.58Z" style="fill:#f6d06c"/><path d="M94 659h59.46a7.51 7.51 0 0 1 7.43 7.59 7.51 7.51 0 0 1-7.43 7.58H94a7.51 7.51 0 0 1-7.44-7.58A7.52 7.52 0 0 1 94 659Z" style="fill:#f7941e"/><path d="M138.58 683.26H257.5a7.51 7.51 0 0 1 7.43 7.59 7.51 7.51 0 0 1-7.43 7.58H138.58a7.51 7.51 0 0 1-7.43-7.58 7.51 7.51 0 0 1 7.43-7.59Z" style="fill:#f6d06c"/><path d="M59.8 704.5h59.46a7.51 7.51 0 0 1 7.43 7.59 7.51 7.51 0 0 1-7.43 7.58H59.8a7.51 7.51 0 0 1-7.44-7.58 7.52 7.52 0 0 1 7.44-7.59Z" style="fill:#1a80c9"/><path d="M59.8 728.77h59.46a7.51 7.51 0 0 1 7.43 7.59 7.51 7.51 0 0 1-7.43 7.58H59.8a7.51 7.51 0 0 1-7.44-7.58 7.52 7.52 0 0 1 7.44-7.59Z" style="fill:#f6d06c"/><path d="M146 750h59.46a7.52 7.52 0 0 1 7.44 7.59 7.51 7.51 0 0 1-7.44 7.58H146a7.51 7.51 0 0 1-7.43-7.58A7.51 7.51 0 0 1 146 750Z" style="fill:#1a80c9"/><path d="M94 772.77h59.46a7.51 7.51 0 0 1 7.43 7.58 7.51 7.51 0 0 1-7.43 7.59H94a7.52 7.52 0 0 1-7.44-7.59 7.51 7.51 0 0 1 7.44-7.58Z" style="fill:#f7941e"/><path d="M59.8 795.52h59.46a7.51 7.51 0 0 1 7.43 7.59 7.51 7.51 0 0 1-7.43 7.58H59.8a7.51 7.51 0 0 1-7.44-7.58 7.52 7.52 0 0 1 7.44-7.59Z" style="fill:#6dcff6"/><path d="M59.8 818.28h59.46a7.51 7.51 0 0 1 7.43 7.58 7.51 7.51 0 0 1-7.43 7.59H59.8a7.52 7.52 0 0 1-7.44-7.59 7.51 7.51 0 0 1 7.44-7.58Z" style="fill:#d7df21"/><path d="M59.8 841h59.46a7.51 7.51 0 0 1 7.43 7.59 7.51 7.51 0 0 1-7.43 7.58H59.8a7.51 7.51 0 0 1-7.44-7.58A7.52 7.52 0 0 1 59.8 841Z" style="fill:#f6d06c"/><path d="M59.8 863.79h59.46a7.51 7.51 0 0 1 7.43 7.58 7.51 7.51 0 0 1-7.43 7.59H59.8a7.52 7.52 0 0 1-7.44-7.59 7.51 7.51 0 0 1 7.44-7.58Z" style="fill:#f7941e"/><path d="M94 886.54h59.46a7.51 7.51 0 0 1 7.43 7.59 7.51 7.51 0 0 1-7.43 7.58H94a7.51 7.51 0 0 1-7.44-7.58 7.52 7.52 0 0 1 7.44-7.59Z" style="fill:#1a80c9"/><path d="M59.8 909.3h59.46a7.51 7.51 0 0 1 7.43 7.58 7.51 7.51 0 0 1-7.43 7.59H59.8a7.52 7.52 0 0 1-7.44-7.59 7.51 7.51 0 0 1 7.44-7.58Z" style="fill:#f7941e"/><path d="M147.5 590.72h133.78a7.52 7.52 0 0 1 7.44 7.59 7.51 7.51 0 0 1-7.44 7.58H147.5a7.51 7.51 0 0 1-7.43-7.58 7.51 7.51 0 0 1 7.43-7.59Z" style="fill:#1a80c9"/><path d="M175.74 772.77h133.79a7.51 7.51 0 0 1 7.43 7.58 7.51 7.51 0 0 1-7.43 7.59H175.74a7.51 7.51 0 0 1-7.43-7.59 7.51 7.51 0 0 1 7.43-7.58Z" style="fill:#f6d06c"/><path d="M140.07 818.28h133.78a7.5 7.5 0 0 1 7.43 7.58 7.51 7.51 0 0 1-7.43 7.59H140.07a7.51 7.51 0 0 1-7.43-7.59 7.5 7.5 0 0 1 7.43-7.58Z" style="fill:#f7941e"/><path d="M140.07 909.3h89.19a7.51 7.51 0 0 1 7.43 7.58 7.51 7.51 0 0 1-7.43 7.59h-89.19a7.51 7.51 0 0 1-7.43-7.59 7.51 7.51 0 0 1 7.43-7.58Z" style="fill:#f6d06c"/><path d="M94 750h29.73a7.51 7.51 0 0 1 7.43 7.59 7.51 7.51 0 0 1-7.43 7.58H94a7.51 7.51 0 0 1-7.44-7.58A7.52 7.52 0 0 1 94 750Z" style="fill:#d7df21"/><path d="M140.07 842.55h59.46a7.51 7.51 0 0 1 7.43 7.59 7.51 7.51 0 0 1-7.43 7.58h-59.46a7.51 7.51 0 0 1-7.43-7.58 7.51 7.51 0 0 1 7.43-7.59Z" style="fill:#6dcff6"/><path d="M138.58 704.5H198a7.51 7.51 0 0 1 7.43 7.59 7.5 7.5 0 0 1-7.43 7.58h-59.42a7.51 7.51 0 0 1-7.43-7.58 7.51 7.51 0 0 1 7.43-7.59Z" style="fill:#f7941e"/><path d="M172.77 659h118.92a7.51 7.51 0 0 1 7.43 7.59 7.51 7.51 0 0 1-7.43 7.58H172.77a7.51 7.51 0 0 1-7.43-7.58 7.51 7.51 0 0 1 7.43-7.59Zm0-22.76H262a7.51 7.51 0 0 1 7.43 7.58 7.51 7.51 0 0 1-7.43 7.59h-89.23a7.51 7.51 0 0 1-7.43-7.59 7.51 7.51 0 0 1 7.43-7.58Z" style="fill:#6dcff6"/><path d="M138.58 728.77h29.73a7.51 7.51 0 0 1 7.43 7.59 7.5 7.5 0 0 1-7.43 7.58h-29.73a7.51 7.51 0 0 1-7.43-7.58 7.51 7.51 0 0 1 7.43-7.59Z" style="fill:#d7df21"/><path d="M140.07 795.52H259a7.51 7.51 0 0 1 7.43 7.59 7.51 7.51 0 0 1-7.43 7.58H140.07a7.5 7.5 0 0 1-7.43-7.58 7.51 7.51 0 0 1 7.43-7.59Z" style="fill:#1a80c9"/><path d="M138.58 863.79h133.78a7.51 7.51 0 0 1 7.44 7.58 7.52 7.52 0 0 1-7.44 7.59H138.58a7.51 7.51 0 0 1-7.43-7.59 7.51 7.51 0 0 1 7.43-7.58Z" style="fill:#6dcff6"/><path d="M175.74 886.54h59.46a7.52 7.52 0 0 1 7.44 7.59 7.51 7.51 0 0 1-7.44 7.58h-59.46a7.51 7.51 0 0 1-7.43-7.58 7.51 7.51 0 0 1 7.43-7.59Z" style="fill:#d7df21"/><path d="M26.47 392.54 111 361.16a209.69 209.69 0 0 1 28.86-28.75c7-3.41 20.16-1.56 44.24-29 23.35-26.8 30.77-49.7 41.7-49.7 17.29 0 30 34.3 49.33 86.25a1072.43 1072.43 0 0 0 48.38 116.64c-20.15-17.25-37.34-35.86-57-35.37-18.25.39-38.51 20.27-60.69 45.8-17.61 20.46-41 34.5-50.07 34.2 0 0-23.56-61.19-43.29-71.13a30.16 30.16 0 0 0-25.31 1.9l-60.68-39.56Z" style="fill:#49d"/><path d="M215.32 260.69c-7.11 8.77-15.71 24.85-31.2 42.68C160 330.85 147 329 139.88 332.41A199.6 199.6 0 0 0 111 361.16l35 23.48c29.7-37.22 45.62-77.57 58-103.68a128.52 128.52 0 0 1 11.32-20.27Z" style="fill:url(#a)"/><path d="M225.93 253.67C202.8 253.67 187 365.54 101.58 428c24-3.61 44.77 51.06 54.32 73.18 42.44-6.62 76.39-81.17 110.66-80 19.63.68 36.82 18.12 57 35.37-46.07-88.86-67.56-202.88-97.63-202.88Z" style="fill:url(#b)"/><path d="M1239.69 744.13a108.57 108.57 0 0 0-87.32-79.82 108.51 108.51 0 0 0-60.51-109.54 109.43 109.43 0 0 0-47.34-10.83 108.63 108.63 0 0 0-83.39 39.2 108.46 108.46 0 0 0-172.93 47.68h-3a108.45 108.45 0 0 0-47.18 206 109.42 109.42 0 0 0 47.34 10.82 108.15 108.15 0 0 0 15.77-1.15A108.78 108.78 0 0 0 846.72 888a109.42 109.42 0 0 0 47.34 10.82 108.63 108.63 0 0 0 27.24-3.47c1 1.41 2 2.79 3 4.09a107.16 107.16 0 0 0 38.88 31.76 109.43 109.43 0 0 0 47.34 10.83 108.49 108.49 0 0 0 99.38-65.22 108.12 108.12 0 0 0 90.65-19.41 108.56 108.56 0 0 0 39.16-113.3Zm-3.28 40.73a102.64 102.64 0 0 1-101.65 89.06 103.55 103.55 0 0 1-25.87-3.29l-2.46-.64-1 2.35A102.63 102.63 0 0 1 928.89 896c-1.33-1.73-2.65-3.59-3.94-5.52l-1.17-1.76-2 .57a102.22 102.22 0 0 1-27.69 3.81 102.78 102.78 0 0 1-88.89-51.18l-1-1.73-2 .32a102.64 102.64 0 1 1-16.94-203.88c1.63 0 3.28 0 4.9.11l2.23.11.67-2.13a102.65 102.65 0 0 1 166.5-45.21l2.31 2.08 1.92-2.44a102.8 102.8 0 0 1 18.5-18.25 102.62 102.62 0 0 1 164 95.5l-.39 2.88 2.87.39a102.64 102.64 0 0 1 87.66 115.24Z"/><text transform="translate(889.19 718.05)" style="font-size:72px;font-family:Helvetica">HD<tspan x="103.99" y="0" style="letter-spacing:-.03662109375em">L</tspan><tspan x="-27.35" y="86.4">Coder</tspan></text><path d="M1580 935.7a17.91 17.91 0 0 0 17.84 18h294.32a17.91 17.91 0 0 0 17.84-18V567.17h-330Z" style="fill:#4d4d4d;stroke:#585858;stroke-miterlimit:10"/><path d="M1892.16 534.58h-294.32a17.91 17.91 0 0 0-17.84 18v15h330v-15a17.91 17.91 0 0 0-17.84-18Z" style="fill:#ccc;stroke:#585858;stroke-miterlimit:10"/><ellipse cx="1831.96" cy="551.81" rx="7.43" ry="7.49" style="fill:#d7df21;stroke:#585858;stroke-miterlimit:10"/><ellipse cx="1889.93" cy="551.81" rx="7.43" ry="7.49" style="fill:#f7941e;stroke:#585858;stroke-miterlimit:10"/><ellipse cx="1860.95" cy="551.81" rx="7.43" ry="7.49" style="fill:#00aeef;stroke:#585858;stroke-miterlimit:10"/><path d="M1592.64 595.63h11.89a7.46 7.46 0 0 1 7.43 7.49 7.46 7.46 0 0 1-7.43 7.49h-11.89a7.46 7.46 0 0 1-7.44-7.49 7.46 7.46 0 0 1 7.44-7.49Zm0 22.47h11.89a7.47 7.47 0 0 1 7.43 7.49 7.46 7.46 0 0 1-7.43 7.49h-11.89a7.46 7.46 0 0 1-7.44-7.49 7.47 7.47 0 0 1 7.44-7.49Zm0 22.47h11.89a7.47 7.47 0 0 1 7.43 7.49 7.46 7.46 0 0 1-7.43 7.49h-11.89a7.46 7.46 0 0 1-7.44-7.49 7.47 7.47 0 0 1 7.44-7.49Zm0 22.43h11.89a7.47 7.47 0 0 1 7.43 7.49 7.46 7.46 0 0 1-7.43 7.49h-11.89a7.46 7.46 0 0 1-7.44-7.49 7.47 7.47 0 0 1 7.44-7.49Zm0 22.52h11.89A7.46 7.46 0 0 1 1612 693a7.47 7.47 0 0 1-7.43 7.49h-11.89a7.47 7.47 0 0 1-7.44-7.49 7.46 7.46 0 0 1 7.4-7.48Zm0 22.48h11.89a7.46 7.46 0 0 1 7.43 7.49 7.47 7.47 0 0 1-7.43 7.49h-11.89a7.47 7.47 0 0 1-7.44-7.49 7.46 7.46 0 0 1 7.44-7.49Zm0 22.46h11.89A7.46 7.46 0 0 1 1612 738a7.46 7.46 0 0 1-7.43 7.49h-11.89a7.46 7.46 0 0 1-7.44-7.49 7.46 7.46 0 0 1 7.4-7.54Zm0 22.47h11.89a7.46 7.46 0 0 1 7.43 7.49 7.46 7.46 0 0 1-7.43 7.49h-11.89a7.46 7.46 0 0 1-7.44-7.49 7.46 7.46 0 0 1 7.44-7.49Zm0 22.47h11.89a7.46 7.46 0 0 1 7.43 7.49 7.46 7.46 0 0 1-7.43 7.49h-11.89a7.46 7.46 0 0 1-7.44-7.49 7.46 7.46 0 0 1 7.44-7.49Zm0 22.47h11.89a7.47 7.47 0 0 1 7.43 7.49 7.46 7.46 0 0 1-7.43 7.49h-11.89a7.46 7.46 0 0 1-7.44-7.49 7.47 7.47 0 0 1 7.44-7.49Zm0 22.47h11.89a7.47 7.47 0 0 1 7.43 7.49 7.46 7.46 0 0 1-7.43 7.49h-11.89a7.46 7.46 0 0 1-7.44-7.49 7.47 7.47 0 0 1 7.44-7.49Zm0 22.47h11.89a7.47 7.47 0 0 1 7.43 7.49 7.46 7.46 0 0 1-7.43 7.49h-11.89a7.46 7.46 0 0 1-7.44-7.49 7.47 7.47 0 0 1 7.44-7.49Zm0 22.48h11.89a7.46 7.46 0 0 1 7.43 7.49 7.47 7.47 0 0 1-7.43 7.49h-11.89a7.47 7.47 0 0 1-7.44-7.49 7.46 7.46 0 0 1 7.44-7.49Zm0 22.47h11.89a7.46 7.46 0 0 1 7.43 7.49 7.47 7.47 0 0 1-7.43 7.49h-11.89a7.47 7.47 0 0 1-7.44-7.49 7.46 7.46 0 0 1 7.44-7.49Zm0 22.47h11.89a7.46 7.46 0 0 1 7.43 7.49 7.47 7.47 0 0 1-7.43 7.49h-11.89a7.47 7.47 0 0 1-7.44-7.49 7.46 7.46 0 0 1 7.44-7.49Z" style="fill:#f2f2f2"/><path d="M1635.74 595.26h59.46a7.46 7.46 0 0 1 7.44 7.49 7.47 7.47 0 0 1-7.44 7.49h-59.46a7.47 7.47 0 0 1-7.43-7.49 7.46 7.46 0 0 1 7.43-7.49Z" style="fill:#d7df21"/><path d="M1635.74 617.73h59.46a7.46 7.46 0 0 1 7.44 7.49 7.47 7.47 0 0 1-7.44 7.49h-59.46a7.47 7.47 0 0 1-7.43-7.49 7.46 7.46 0 0 1 7.43-7.49Z" style="fill:#f7941e"/><path d="M1664 640.2h59.46a7.46 7.46 0 0 1 7.43 7.49 7.46 7.46 0 0 1-7.43 7.49H1664a7.46 7.46 0 0 1-7.44-7.49 7.46 7.46 0 0 1 7.44-7.49Z" style="fill:#f6d06c"/><path d="M1664 662.67h59.46a7.46 7.46 0 0 1 7.43 7.49 7.46 7.46 0 0 1-7.43 7.49H1664a7.46 7.46 0 0 1-7.44-7.49 7.46 7.46 0 0 1 7.44-7.49Z" style="fill:#f7941e"/><path d="M1708.58 686.64h118.92a7.46 7.46 0 0 1 7.43 7.49 7.46 7.46 0 0 1-7.43 7.49h-118.92a7.46 7.46 0 0 1-7.43-7.49 7.46 7.46 0 0 1 7.43-7.49Z" style="fill:#f6d06c"/><path d="M1629.8 707.61h59.46a7.47 7.47 0 0 1 7.43 7.49 7.46 7.46 0 0 1-7.43 7.49h-59.46a7.46 7.46 0 0 1-7.44-7.49 7.47 7.47 0 0 1 7.44-7.49Z" style="fill:#1a80c9"/><path d="M1629.8 731.58h59.46a7.46 7.46 0 0 1 7.43 7.49 7.46 7.46 0 0 1-7.43 7.49h-59.46a7.46 7.46 0 0 1-7.44-7.49 7.46 7.46 0 0 1 7.44-7.49Z" style="fill:#f6d06c"/><path d="M1716 752.55h59.46a7.47 7.47 0 0 1 7.44 7.49 7.47 7.47 0 0 1-7.44 7.5H1716a7.47 7.47 0 0 1-7.43-7.5 7.47 7.47 0 0 1 7.43-7.49Z" style="fill:#1a80c9"/><path d="M1664 775h59.46a7.46 7.46 0 0 1 7.43 7.49 7.47 7.47 0 0 1-7.43 7.49H1664a7.47 7.47 0 0 1-7.44-7.49A7.46 7.46 0 0 1 1664 775Z" style="fill:#f7941e"/><path d="M1629.8 797.5h59.46a7.46 7.46 0 0 1 7.43 7.49 7.47 7.47 0 0 1-7.43 7.49h-59.46a7.47 7.47 0 0 1-7.44-7.49 7.46 7.46 0 0 1 7.44-7.49Z" style="fill:#6dcff6"/><path d="M1629.8 820h59.46a7.46 7.46 0 0 1 7.43 7.49 7.46 7.46 0 0 1-7.43 7.49h-59.46a7.46 7.46 0 0 1-7.44-7.49 7.46 7.46 0 0 1 7.44-7.49Z" style="fill:#d7df21"/><path d="M1629.8 842.44h59.46a7.46 7.46 0 0 1 7.43 7.49 7.46 7.46 0 0 1-7.43 7.49h-59.46a7.46 7.46 0 0 1-7.44-7.49 7.46 7.46 0 0 1 7.44-7.49Z" style="fill:#f6d06c"/><path d="M1629.8 864.91h59.46a7.46 7.46 0 0 1 7.43 7.49 7.46 7.46 0 0 1-7.43 7.49h-59.46a7.46 7.46 0 0 1-7.44-7.49 7.46 7.46 0 0 1 7.44-7.49Z" style="fill:#f7941e"/><path d="M1664 887.38h59.46a7.47 7.47 0 0 1 7.43 7.49 7.46 7.46 0 0 1-7.43 7.49H1664a7.46 7.46 0 0 1-7.44-7.49 7.47 7.47 0 0 1 7.44-7.49Z" style="fill:#1a80c9"/><path d="M1629.8 909.85h59.46a7.47 7.47 0 0 1 7.43 7.49 7.46 7.46 0 0 1-7.43 7.49h-59.46a7.46 7.46 0 0 1-7.44-7.49 7.47 7.47 0 0 1 7.44-7.49Z" style="fill:#f7941e"/><path d="M1717.5 595.26h133.78a7.46 7.46 0 0 1 7.44 7.49 7.47 7.47 0 0 1-7.44 7.49H1717.5a7.47 7.47 0 0 1-7.43-7.49 7.46 7.46 0 0 1 7.43-7.49Z" style="fill:#1a80c9"/><path d="M1745.74 775h133.79a7.46 7.46 0 0 1 7.43 7.49 7.47 7.47 0 0 1-7.43 7.49h-133.79a7.47 7.47 0 0 1-7.43-7.49 7.46 7.46 0 0 1 7.43-7.49Z" style="fill:#f6d06c"/><path d="M1710.07 820h133.78a7.45 7.45 0 0 1 7.43 7.49 7.45 7.45 0 0 1-7.43 7.49h-133.78a7.45 7.45 0 0 1-7.43-7.49 7.45 7.45 0 0 1 7.43-7.49Z" style="fill:#f7941e"/><path d="M1710.07 909.85h89.19a7.47 7.47 0 0 1 7.43 7.49 7.46 7.46 0 0 1-7.43 7.49h-89.19a7.45 7.45 0 0 1-7.43-7.49 7.46 7.46 0 0 1 7.43-7.49Z" style="fill:#f6d06c"/><path d="M1664 752.55h29.73a7.47 7.47 0 0 1 7.43 7.49 7.47 7.47 0 0 1-7.43 7.5H1664a7.47 7.47 0 0 1-7.44-7.5 7.47 7.47 0 0 1 7.44-7.49Z" style="fill:#d7df21"/><path d="M1710.07 843.94h59.46a7.46 7.46 0 0 1 7.43 7.49 7.47 7.47 0 0 1-7.43 7.49h-59.46a7.46 7.46 0 0 1-7.43-7.49 7.45 7.45 0 0 1 7.43-7.49Z" style="fill:#6dcff6"/><path d="M1708.58 707.61H1768a7.46 7.46 0 0 1 7.43 7.49 7.45 7.45 0 0 1-7.43 7.49h-59.46a7.46 7.46 0 0 1-7.43-7.49 7.47 7.47 0 0 1 7.47-7.49Z" style="fill:#f7941e"/><path d="M1742.77 662.67h118.92a7.46 7.46 0 0 1 7.43 7.49 7.46 7.46 0 0 1-7.43 7.49h-118.92a7.46 7.46 0 0 1-7.43-7.49 7.46 7.46 0 0 1 7.43-7.49Zm0-22.47H1832a7.46 7.46 0 0 1 7.43 7.49 7.46 7.46 0 0 1-7.43 7.49h-89.19a7.46 7.46 0 0 1-7.43-7.49 7.46 7.46 0 0 1 7.39-7.49Z" style="fill:#6dcff6"/><path d="M1708.58 731.58h29.73a7.45 7.45 0 0 1 7.43 7.49 7.45 7.45 0 0 1-7.43 7.49h-29.73a7.46 7.46 0 0 1-7.43-7.49 7.46 7.46 0 0 1 7.43-7.49Z" style="fill:#d7df21"/><path d="M1710.07 797.5H1829a7.46 7.46 0 0 1 7.43 7.49 7.47 7.47 0 0 1-7.43 7.49h-118.93a7.46 7.46 0 0 1-7.43-7.49 7.45 7.45 0 0 1 7.43-7.49Z" style="fill:#1a80c9"/><path d="M1708.58 864.91h133.78a7.46 7.46 0 0 1 7.44 7.49 7.46 7.46 0 0 1-7.44 7.49h-133.78a7.46 7.46 0 0 1-7.43-7.49 7.46 7.46 0 0 1 7.43-7.49Z" style="fill:#6dcff6"/><path d="M1745.74 887.38h59.46a7.47 7.47 0 0 1 7.44 7.49 7.46 7.46 0 0 1-7.44 7.49h-59.46a7.46 7.46 0 0 1-7.43-7.49 7.47 7.47 0 0 1 7.43-7.49Z" style="fill:#d7df21"/><g data-name="IC outline"><rect x="1644.95" y="276.99" width="206.13" height="207.73" rx="11.64" style="fill:#4d4d4d;stroke:#666;stroke-miterlimit:10;stroke-width:4px"/><path style="fill:#4d4d4d;stroke:#666;stroke-miterlimit:10;stroke-width:4px" d="m1646.48 290.46-22.55-.02m22.55 180.7-22.55-.02m22.55-22.7-22.55-.02m22.55-22.7-22.55-.02m22.55-22.7-22.55-.02m22.55-21.62-22.55-.02m22.55-22.7-22.55-.02m22.55-22.7-22.55-.02m22.55-22.7-22.55-.02m213.65-37.85-.1-21.64m-178.12 22.72-.09-22.72m21.56 22.72-.09-22.72m22.64 22.72-.1-22.72m22.64 22.72-.09-22.72m22.64 22.72-.1-22.72m22.64 22.72-.09-22.72m21.57 21.64-.1-21.64m22.64 21.64-.09-21.64m-153.43 230.46-.02 22.72m178.23-22.72-.02 22.72m-22.52-22.72-.02 22.72m-22.53-22.72-.02 22.72m-21.45-22.72-.02 22.72m-22.52-22.72-.02 22.72m-22.53-22.72-.02 22.72m-22.52-22.72-.02 22.72m-22.53-22.72-.02 22.72m169.65-37.87 22.54.02m-22.54-179.62 22.54.02m-22.54 22.7 22.54.02m-22.54 21.62 22.54.02m-22.54 22.7 22.54.02m-22.54 22.7 22.54.02m-22.54 22.7 22.54.02m-22.54 22.7 22.54.02m-22.54 21.62 22.54.02"/></g><ellipse cx="1816.43" cy="308.35" rx="18.58" ry="18.73" style="fill:#999;stroke:#666;stroke-miterlimit:10;stroke-width:4px"/><path style="fill:none;stroke:gray;stroke-miterlimit:10;stroke-width:20px" d="M370.94 743h214.65"/><path d="M645.94 743c-28.4 10.54-63.63 28.52-85.48 47.56L577.67 743l-17.21-47.55c21.85 19.04 57.08 37.02 85.48 47.55Z" style="fill:gray"/><path style="fill:none;stroke:gray;stroke-miterlimit:10;stroke-width:20px" d="M1274.06 743h214.65"/><path d="M1549.06 743c-28.4 10.54-63.63 28.52-85.47 47.56l17.2-47.56-17.2-47.55c21.84 19.04 57.07 37.02 85.47 47.55Z" style="fill:gray"/></svg>