<svg xmlns="http://www.w3.org/2000/svg" width="192.756" height="192.756" xml:space="preserve"><path fill-rule="evenodd" clip-rule="evenodd" fill="#FFFB00" stroke="#000" stroke-width=".427" stroke-linejoin="round" stroke-miterlimit="2.613" d="m142.963 8.678 16.616 17.517s-8.365 11.137-8.831 33.293c-.349 13.457 4.067 32.829 4.067 32.829s1.743-6.728 8.018-6.96c8.017-.464 8.714 4.524 8.714 4.524l7.204 19.837s.466 3.133-1.742 4.873c-1.976 1.623-3.835 1.738-3.835 1.738s2.789 16.473-13.827 30.625c-10.69 9.049-26.841 15.777-40.437 20.418-13.826 4.871-22.542 16.705-22.542 16.705s-8.714-11.834-22.542-16.705c-13.595-4.641-29.63-11.369-40.32-20.418-16.732-14.152-13.943-30.625-13.943-30.625s-1.859-.115-3.835-1.738c-2.091-1.74-1.743-4.873-1.743-4.873l7.205-19.837s.814-4.989 8.714-4.524c6.275.232 8.018 6.96 8.018 6.96s4.416-19.373 4.066-32.829c-.464-22.157-8.831-33.293-8.831-33.293L49.774 8.678h93.189z"/><path fill-rule="evenodd" clip-rule="evenodd" fill="#0059AD" stroke="#000" stroke-width=".427" stroke-linejoin="round" stroke-miterlimit="2.613" d="m139.71 13.318 13.943 14.732s-7.437 13.689-7.901 35.846c-.232 13.457 14.292 43.037-3.369 58.35-10.574 9.166-15.454 11.949-29.05 16.59-13.827 4.871-16.964 10.324-16.964 10.324s-2.905-5.453-16.848-10.324c-13.595-4.641-18.359-7.424-28.932-16.59-17.662-15.312-3.138-44.893-3.486-58.35-.465-22.157-7.901-35.846-7.901-35.846l13.943-14.732h86.565z"/><path fill-rule="evenodd" clip-rule="evenodd" fill="#FFFB00" stroke="#000" stroke-width=".427" stroke-linejoin="round" stroke-miterlimit="2.613" d="M147.379 75.729c3.137 14.849 8.481 34.802-4.996 46.517-10.574 9.166-15.454 11.949-29.05 16.59-13.827 4.871-16.964 10.324-16.964 10.324 1.86-8.236-.697-19.025-2.905-24.594-2.091-5.451-34.277-100.228-34.277-100.228l88.192 51.391z"/><path fill-rule="evenodd" clip-rule="evenodd" fill="#BBBEC0" stroke="#000" stroke-width=".427" stroke-linejoin="round" stroke-miterlimit="2.613" d="M96.369 149.16s-.232-14.732-3.95-20.068c-3.602-5.221-8.947-11.021-14.176-9.164-4.532 1.508-3.718 6.844-3.718 6.844L59.187 24.339s32.187 94.776 34.277 100.228c2.208 5.568 4.765 16.357 2.905 24.593z"/><path fill-rule="evenodd" clip-rule="evenodd" fill="#FFF" stroke="#000" stroke-width=".427" stroke-linejoin="round" stroke-miterlimit="2.613" d="m100.901 120.971-40.436-95.24 77.85 59.626-23.471 9.745-13.943 25.869z"/><path fill-rule="evenodd" clip-rule="evenodd" fill="#BBBEC0" stroke="#000" stroke-width=".427" stroke-linejoin="round" stroke-miterlimit="2.613" d="m60.465 25.731 45.665 59.047-5.229 36.193-40.436-95.24zm86.914 49.998-88.192-51.39 76.456 26.101s-4.88-1.856-4.647 2.9c.232 8.701 16.383 22.389 16.383 22.389z"/><path fill-rule="evenodd" clip-rule="evenodd" fill="#939598" stroke="#000" stroke-width=".427" stroke-linejoin="round" stroke-miterlimit="2.613" d="m138.315 85.357-32.185-.579-5.229 36.193 13.943-25.869 23.471-9.745z"/><path fill-rule="evenodd" clip-rule="evenodd" fill="#FFF" stroke="#000" stroke-width=".427" stroke-linejoin="round" stroke-miterlimit="2.613" d="M50.704 90.81h3.951l1.161-3.712 1.163 3.712h3.951l-3.138 2.32 1.162 3.712-3.138-2.32-3.137 2.32 1.162-3.712-3.137-2.32zm0-11.369h3.951l1.161-3.712 1.163 3.712h3.951l-3.138 2.32 1.162 3.713-3.138-2.321-3.137 2.321 1.162-3.713-3.137-2.32zm0-11.368h3.951l1.161-3.713 1.163 3.713h3.951l-3.138 2.32 1.162 3.711-3.138-2.319-3.137 2.319 1.162-3.711-3.137-2.32zm0-11.368h3.951l1.161-3.713 1.163 3.713h3.951l-3.138 2.319 1.162 3.713-3.138-2.32-3.137 2.32 1.162-3.713-3.137-2.319zm0-11.37h3.951l1.161-3.595 1.163 3.595h3.951l-3.138 2.321 1.162 3.712-3.138-2.32-3.137 2.32 1.162-3.712-3.137-2.321z"/><path fill="none" stroke="#FFFB00" stroke-width=".427" stroke-linecap="round" stroke-linejoin="round" stroke-miterlimit="2.613" d="M113.914 17.031v21.577m-8.249-10.789h16.615m-13.594-1.74 10.574 3.48m-11.039 3.944 11.388-11.369m-11.388.001 11.388 11.369m-3.952-.464-3.485-10.557m0 10.557 3.485-10.557m3.603 3.596-10.574 3.48"/><path fill-rule="evenodd" clip-rule="evenodd" fill="#FFF" stroke="#000" stroke-width=".427" stroke-linejoin="round" stroke-miterlimit="2.613" d="m28.859 94.522-2.556 3.132s2.091 1.623 3.137.58c1.046-1.045-.581-3.712-.581-3.712zm-7.552 1.044s0 2.899 2.905 4.292c2.905 1.277 5.229 1.045 5.229 1.045s-2.905 3.133-4.997 5.221c-2.091 2.088-4.531 7.191-4.531 7.191s-1.743 0-2.904-1.623c-1.046-1.625 0-5.916 1.045-8.469 1.161-2.553 3.253-7.657 3.253-7.657zm143.036-1.044 2.673 3.132s-2.092 1.623-3.137.58c-1.046-1.045.464-3.712.464-3.712zm7.669 1.044s0 2.899-2.904 4.292c-2.904 1.277-5.229 1.045-5.229 1.045s2.904 3.133 4.996 5.221 4.415 7.191 4.415 7.191 1.859 0 2.905-1.623c1.046-1.625 0-5.916-1.046-8.469l-3.137-7.657z"/><path fill-rule="evenodd" clip-rule="evenodd" fill="#FFF" stroke="#000" stroke-width=".427" stroke-linejoin="round" stroke-miterlimit="2.613" d="M97.183 155.193s9.063-8.121 15.802-10.789c12.085-4.756 18.708-7.076 28.701-14.037 9.992-6.844 14.524-18.445 14.989-24.244.58-5.801 1.626-12.646 2.904-14.965 1.395-2.437 4.066-5.568 8.25-2.668 4.183 2.9 1.046 7.888 1.046 7.888l-4.532-5.22s-3.137 2.088-3.137 7.307c0 5.338 3.95 9.049 6.042 11.137 2.092 2.09 4.184 1.74 3.486 11.602-.814 11.6-11.388 21.926-19.057 27.957-7.553 6.033-28.7 13.225-37.183 16.82-8.365 3.713-17.777 12.992-17.777 12.992s-9.528-9.279-18.01-12.992c-8.367-3.596-29.514-10.787-37.183-16.82-7.553-6.031-18.126-16.357-18.94-27.957-.697-9.861 1.278-9.512 3.486-11.602 2.091-2.088 6.042-5.799 6.042-11.137 0-5.219-3.253-7.307-3.253-7.307l-4.416 5.22s-3.136-4.988 1.046-7.888c4.183-2.9 6.855.231 8.134 2.668 1.394 2.32 2.44 9.165 2.905 14.965.581 5.799 4.997 17.4 15.105 24.244 9.993 6.961 16.616 9.281 28.7 14.037 6.739 2.668 15.803 10.789 15.803 10.789l.464.58.583-.58z"/><path fill-rule="evenodd" clip-rule="evenodd" fill="#FFF" d="M78.359 119.811c1.394-.463 3.137-.348 4.183.117L59.187 24.339l19.172 95.472zm53.101-63.803s-31.257-12.761-72.273-31.669L131.228 51.6c-.465 1.16-.349 2.668.232 4.408z"/><path fill-rule="evenodd" clip-rule="evenodd" fill="#939598" stroke="#000" stroke-width=".427" stroke-linejoin="round" stroke-miterlimit="2.613" d="M74.524 126.771s-.813-5.336 3.718-6.844c1.742-.58 3.37-.465 5.112.348l1.743 11.947s-5.461-.695-8.482-2.551c-1.974-1.392-2.091-2.9-2.091-2.9zm61.119-76.331s-4.88-1.856-4.647 2.9c0 .928.116 1.74.465 2.668l11.387 5.336s-1.278-6.612-4.764-9.512c-1.744-1.16-2.441-1.392-2.441-1.392z"/><path fill-rule="evenodd" clip-rule="evenodd" d="m28.627 123.523.93 1.855 1.976-2.203-2.906.348zm-1.162 2.668.232-.115.464.811 1.278-1.275-1.046-1.973-1.859.232.466.928-.232.117-1.046-1.857.232-.115.465.695 6.855-1.043.232.23-4.764 5.221.349.812-.232.115-1.394-2.783z"/><path fill-rule="evenodd" clip-rule="evenodd" d="m30.834 131.295-1.858-2.668.232-.115.465.81 5.112-3.595-.58-.811.232-.117 1.859 2.668-.116.117-.581-.697-5.113 3.48.581.813-.233.115z"/><path fill-rule="evenodd" clip-rule="evenodd" d="m35.134 130.715.349.35c.349.463.697.695 1.046.695s.581-.117 1.046-.465c.349-.348.581-.695.581-.928 0-.348-.232-.58-.581-1.045l-.465-.463-1.976 1.856zm-2.092 3.248-2.208-2.436.117-.115.697.695 4.532-4.293-.581-.695.116-.115 2.324 2.436c.581.58.93 1.16.93 1.508.116.465 0 .928-.465 1.275-.349.35-.697.465-1.045.35-.465-.117-.93-.35-1.511-.812v.115c.349.58.465 1.045.465 1.508-.116.35-.348.812-.813 1.277l-.232.232c-.233.23-.349.463-.349.578-.116.117 0 .35.232.465 0 .115 0 .115.117.115 0 0 0 .117.116.117l-.232.23-.232-.23c-.116 0-.116-.117-.232-.117-.465-.463-.697-.928-.697-1.275s.232-.812.582-1.16l.464-.463c.349-.465.581-.812.581-1.045-.116-.348-.348-.695-.813-1.277l-2.324 2.205.697.697-.236.23zm7.669 2.435-1.859 2.553.814.58-.117.232-2.672-1.973.116-.23.813.58 3.602-4.988-.697-.58.116-.232 4.416 3.248-1.162 1.623-.117-.115c.233-.58.465-1.045.349-1.393 0-.348-.349-.695-.813-1.043l-1.045-.812-1.627 2.32.116.115c.349.232.697.348.93.348.348 0 .581-.232.93-.58l.116.117-1.51 2.203-.232-.115c.232-.348.349-.695.349-1.045-.118-.231-.351-.463-.816-.813zm3.486 3.481c-.465.812-.697 1.393-.697 1.857 0 .348.349.811.813 1.16.465.232.93.348 1.394.115.349-.115.814-.58 1.278-1.275l.93-1.393c.465-.812.697-1.393.697-1.855 0-.465-.232-.812-.813-1.16-.465-.232-.93-.348-1.278-.117-.465.117-.93.58-1.395 1.277l-.929 1.391zm-.697-1.391c.581-.928 1.278-1.393 2.092-1.74.813-.232 1.627-.117 2.439.463.698.465 1.163 1.16 1.279 1.973.116.928-.116 1.74-.697 2.553-.465.928-1.162 1.393-2.091 1.74-.814.23-1.627.115-2.324-.465-.813-.465-1.162-1.16-1.394-1.973-.117-.928.115-1.74.696-2.551zm7.437 4.176.464.232c.582.348.93.348 1.278.348.232-.115.582-.348.814-.697.232-.463.348-.811.348-1.16-.116-.23-.348-.463-.813-.695l-.697-.463-1.394 2.435zm-.93 3.713-2.905-1.625.117-.232.929.465 3.137-5.336-.93-.58.116-.117 2.905 1.625c.814.463 1.279.811 1.395 1.275.232.348.232.812 0 1.277-.232.348-.581.578-1.045.695-.349 0-.93-.117-1.627-.348v.115c.581.348.813.812.93 1.275.116.35 0 .812-.349 1.393l-.232.348c-.116.348-.232.465-.232.697.117.115.232.232.465.348 0 0 0 .115.117.115h.116l-.118.233c-.117 0-.233 0-.349-.115h-.116c-.581-.348-.93-.697-1.046-1.045-.232-.348-.116-.812.116-1.275l.349-.58c.232-.465.349-.928.232-1.16-.116-.348-.465-.58-1.162-1.045l-1.626 2.9.93.465-.117.232zm7.901 4.408h-.232l-.116-.697a1.297 1.297 0 0 1-.93 0c-.232 0-.581-.115-.929-.348-.697-.348-1.162-1.043-1.395-1.855-.116-.93 0-1.74.465-2.668.581-.928 1.162-1.51 1.975-1.74.93-.348 1.627-.232 2.44.115.349.232.581.348.697.58.232.232.349.465.464.695l.582-.115h.116l-.929 1.74-.232-.115c.232-.58.232-1.045.116-1.51-.232-.463-.465-.811-.93-1.043-.582-.232-.93-.348-1.395-.117-.349.232-.813.697-1.278 1.51l-.697 1.391c-.465.812-.697 1.393-.581 1.857 0 .463.232.811.813 1.043.465.348.929.348 1.394.232.465-.115.93-.348 1.395-.928l.232.232-1.045 1.741zm4.067-1.857-1.51 2.785 1.162.58c.581.23 1.046.348 1.395.23.465-.115.813-.463 1.278-1.043l.232.115-1.045 1.857-5.113-2.553.116-.232.814.465 2.905-5.568-.929-.465.116-.232 4.88 2.553-.697 1.625-.232-.117c.116-.58.116-1.043 0-1.391-.116-.232-.465-.582-.93-.812l-1.045-.58-1.395 2.553.116.115c.464.232.813.232 1.046.232.349-.117.581-.348.813-.697l.232.117-1.279 2.32h-.231c.231-.465.231-.812.231-1.16-.116-.232-.465-.465-.93-.697zm9.877 4.64.465.232c.581.232.929.232 1.278.232.232-.117.581-.35.813-.812.233-.465.233-.812.117-1.045 0-.348-.349-.58-.813-.811l-.581-.35-1.279 2.554zm-.697 3.713-3.021-1.393.117-.232.929.465 2.673-5.686-.814-.348.117-.232 3.021 1.393c.697.465 1.278.812 1.51 1.16.233.465.233.812 0 1.393-.232.348-.581.58-.93.695-.465 0-.929 0-1.626-.232l-.116.117c.581.348.93.812 1.046 1.16.116.463 0 .928-.232 1.508l-.232.348c-.116.348-.116.465-.116.695 0 .117.116.232.349.35h.232c0 .115 0 .115.116.115l-.116.232c-.116 0-.232-.117-.349-.117h-.232c-.581-.348-.93-.695-1.046-.928-.116-.348-.116-.811.116-1.393l.233-.578c.232-.465.232-.93.116-1.162-.116-.23-.465-.578-1.162-.928l-1.395 3.018.93.348-.118.232zm6.507-.697-1.278 2.785 1.162.58c.581.23 1.045.23 1.394.115.465-.115.813-.463 1.162-1.16l.232.117-.93 1.971-5.229-2.32.116-.23.93.463 2.557-5.684-.929-.465.115-.232 4.997 2.32-.697 1.625-.232-.117c.116-.578.116-1.043 0-1.275-.116-.348-.465-.58-.93-.812l-1.162-.58-1.162 2.668h.116c.465.232.814.35 1.046.232.233-.115.465-.348.697-.695h.232l-1.046 2.553-.232-.117c.117-.463.117-.812 0-1.043-.116-.232-.348-.465-.813-.697h-.116v-.002zm2.672 4.988-.232-.115.813-1.74h.232c-.116.695 0 1.16.117 1.508.116.465.465.695.813.928.464.117.813.232 1.278 0 .349-.115.581-.348.813-.695.116-.35.116-.58 0-.812s-.349-.58-.697-.812l-.465-.463a2.056 2.056 0 0 1-.929-1.16c-.232-.465-.117-.812.116-1.393.232-.465.464-.812.929-1.043.465-.117.93-.117 1.395.115.349.115.581.232.697.348.233.115.349.348.465.58l.581-.232.116.117-.813 1.74-.232-.117c.117-.58.117-1.043 0-1.391-.232-.465-.464-.697-.813-.812-.349-.232-.697-.232-1.046-.117a1.19 1.19 0 0 0-.697.58.736.736 0 0 0 0 .697c.116.23.348.463.697.695l.581.465c.465.463.813.811.93 1.275.116.348.116.928-.116 1.391-.349.582-.697 1.045-1.162 1.277-.582.232-1.047.232-1.627 0l-.697-.348c-.233-.232-.349-.465-.581-.695l-.466.229zm7.437-.695-1.046 2.9 1.046.463c.697.232 1.162.232 1.51.117.465-.232.813-.58 1.163-1.277l.232.117-.929 2.088-5.229-2.088v-.232l.93.348 2.208-5.801-.813-.348v-.23l5.112 1.971-.581 1.74-.116-.115c0-.58 0-1.045-.117-1.393-.231-.232-.581-.465-1.045-.695l-1.162-.465-1.045 2.668.116.115c.464.117.813.117 1.046.117.231-.117.464-.348.697-.812l.232.115-.929 2.438h-.233c.116-.465.116-.812 0-1.045-.116-.23-.465-.465-.93-.695h-.117v-.001zm4.647 2.783 1.859.58-.117-2.898h-.116l-1.626 2.318zm.93 2.668.116-.23.93.348-.116-1.857-2.091-.695-1.047 1.506.93.348v.232l-2.092-.58.116-.232.697.232 4.183-5.684.349.115.349 6.961.697.232v.23l-3.021-.926zm5.925-3.711.465-.232c.581-.115.93-.348 1.046-.695.117-.232.117-.582 0-1.045-.232-.58-.349-.812-.581-.928s-.697-.115-1.162 0l-.697.232.929 2.668zm2.092 3.131-3.021 1.16-.115-.348.929-.232-2.091-5.916-.929.348v-.23l3.137-1.16c.813-.232 1.395-.348 1.859-.232s.697.465.93.928c.116.465.116.812-.116 1.16s-.697.695-1.278 1.045c.697 0 1.162 0 1.511.232.349.23.697.578.93 1.158l.116.465c.116.232.232.463.349.58.115 0 .349 0 .58-.117h.117l.116-.115.116.232c-.116.115-.232.232-.35.232l-.116.115c-.696.232-1.161.232-1.51.115-.349-.115-.581-.463-.813-1.043l-.233-.58c-.231-.465-.464-.812-.696-.928-.349-.115-.813 0-1.511.23l1.046 3.018.93-.348.113.231zm8.483-3.131-.116.115-.581-.23c-.116.23-.349.463-.58.695-.233.115-.582.348-.814.463-.813.348-1.626.232-2.439-.115-.698-.465-1.279-1.16-1.743-2.088-.349-.928-.349-1.74-.116-2.668.349-.812.813-1.393 1.743-1.74.231-.115.581-.115.812-.232.35 0 .581.117.813.117l.232-.465.116-.117.813 1.857-.232.115c-.349-.58-.813-.928-1.162-1.043-.464-.117-.929-.117-1.394.115a1.261 1.261 0 0 0-.93.928c-.117.465 0 1.045.348 1.855l.582 1.625c.348.697.697 1.275 1.046 1.508.464.232.929.348 1.394.117.581-.232.931-.582 1.162-1.045.116-.465.232-.928.116-1.625l.232-.115.698 1.973zm3.485-1.51-3.021 1.395-.116-.232.93-.465-2.556-5.684-.814.463-.116-.232 2.905-1.391.116.232-.93.463 1.163 2.553 2.555-1.045-1.162-2.668-.929.465-.116-.232 3.021-1.393.117.348-.931.349 2.557 5.684.813-.465.117.232-3.022 1.393v-.232l.93-.465-1.278-2.784-2.556 1.161 1.277 2.785.93-.465.116.23zm12.317-5.683-4.996 2.438-.117-.232.93-.465-2.672-5.568-.93.465-.116-.232 2.905-1.393.115.232-.812.348 2.672 5.686.93-.465c.581-.348.93-.695 1.162-1.043.116-.465 0-1.045-.232-1.74l.232-.117.929 2.086z"/><path fill-rule="evenodd" clip-rule="evenodd" d="m126.115 152.641 1.859-.812-2.092-2.088-.116.115.349 2.785zm2.556 1.392-.116-.232.931-.465-1.279-1.275-1.975.928.232 1.855.929-.463.116.23-1.975.93-.116-.232.697-.348-.813-6.961.349-.115 4.996 4.871.813-.348v.232l-2.789 1.393z"/><path fill-rule="evenodd" clip-rule="evenodd" d="m131.809 148.697 1.395 2.783.813-.348c.465-.232.812-.58.812-.812.117-.348 0-.695-.232-1.275-.231-.465-.58-.812-.929-.928-.35 0-.813 0-1.278.348l-.581.232zm-.117-.232.465-.232c.581-.232.813-.465.93-.812s.116-.695-.116-1.16c-.232-.463-.581-.812-.813-.812-.232-.115-.581-.115-1.046.117l-.697.348 1.277 2.551zm-.348 4.291-.116-.232.813-.463-2.789-5.568-.812.463-.233-.23 3.021-1.508c.813-.35 1.394-.58 1.859-.465.465 0 .813.348 1.045.812.117.348.233.695 0 1.043-.115.348-.464.697-.929 1.16v.117c.697-.232 1.162-.348 1.626-.232.465.115.813.348 1.046.812a1.72 1.72 0 0 1 0 1.508 3.792 3.792 0 0 1-1.626 1.275l-2.905 1.508zm5.693-5.801c.465.812.93 1.277 1.278 1.393.465.232.93.232 1.395-.115.465-.232.813-.58.813-1.045 0-.463-.116-1.043-.581-1.855l-.813-1.393c-.349-.811-.813-1.275-1.162-1.508-.465-.232-.93-.115-1.395.115-.581.35-.813.697-.813 1.16-.116.465.116 1.045.466 1.74l.812 1.508zm-1.627 0c-.464-.928-.581-1.738-.464-2.666.231-.812.696-1.51 1.51-1.973.697-.35 1.511-.465 2.324-.117.93.232 1.511.812 2.092 1.74.464.928.581 1.74.349 2.668-.116.812-.581 1.51-1.395 1.857-.813.463-1.627.58-2.44.232a4.097 4.097 0 0 1-1.976-1.741zm7.437-4.639.466-.232c.464-.232.812-.58.929-.812.117-.348 0-.695-.232-1.16a1.8 1.8 0 0 0-.813-.812c-.232 0-.58 0-1.045.35l-.697.348 1.392 2.318zm2.673 2.784-2.789 1.625-.115-.232.812-.465-3.021-5.336-.93.465-.116-.232 2.904-1.625c.697-.463 1.395-.695 1.743-.695.465 0 .813.348 1.162.812.232.348.232.695.116 1.16-.232.348-.581.695-1.162 1.16l.116.115c.581-.232 1.162-.232 1.511-.115.465.115.813.463 1.046 1.043l.232.35c.232.23.349.348.464.463.116 0 .35 0 .582-.115 0 0 0-.117.116-.117 0 0 0-.115.116-.115l.116.232-.232.23c-.116.117-.116.117-.232.117-.581.348-1.047.465-1.395.465-.349-.117-.581-.35-.93-.812l-.349-.58c-.349-.465-.581-.697-.929-.812-.35 0-.814.115-1.396.463l1.627 2.785.813-.465.12.231z"/><path fill-rule="evenodd" clip-rule="evenodd" d="m148.541 140.576 1.626-1.16-2.323-1.625h-.116l.813 2.785zm2.673.928-.117-.117.813-.578-1.511-1.16-1.858 1.275.464 1.74.93-.58.116.232-1.742 1.16-.116-.117.581-.463-1.743-6.846.232-.23 5.693 4.176.697-.465.116.232-2.555 1.741zm2.672-10.557 1.395 1.508-.232.232c-.581-.465-1.046-.812-1.395-.812s-.697.117-1.162.465l-.116.115h-.116l4.067 4.873.813-.697.115.117-2.672 2.32-.116-.232.813-.695-3.951-4.758-.349.232c-.349.232-.581.695-.581 1.045 0 .348.116.811.581 1.508l-.232.115-1.278-1.623 4.416-3.713z"/><path fill-rule="evenodd" clip-rule="evenodd" d="M157.604 133.035c.58.58 1.161.812 1.626.928.465 0 .93-.115 1.278-.58.349-.463.465-.928.465-1.275-.116-.465-.581-1.043-1.162-1.623l-1.278-1.045c-.581-.58-1.161-.928-1.626-.928-.466-.117-.814.115-1.279.463-.348.465-.465.928-.348 1.393 0 .348.465.928 1.046 1.508l1.278 1.159zm-1.627.465c-.696-.697-1.161-1.508-1.277-2.32-.116-.928.116-1.74.813-2.32.58-.695 1.277-1.045 2.207-1.045.813.117 1.627.465 2.44 1.045.697.695 1.162 1.508 1.277 2.436.117.812-.115 1.625-.696 2.205-.697.695-1.395 1.043-2.324 1.043-.813-.001-1.627-.349-2.44-1.044z"/><path fill-rule="evenodd" clip-rule="evenodd" d="m161.09 126.887.348-.463c.35-.465.465-.812.465-1.16-.115-.348-.231-.58-.696-.928-.465-.232-.813-.348-1.046-.348s-.581.23-.813.695l-.465.58 2.207 1.624zm3.601 1.277-1.858 2.783-.116-.232.465-.812-4.997-3.479-.58.812-.232-.232 1.858-2.668c.581-.697.93-1.16 1.395-1.393.465-.117.812 0 1.277.232.35.23.582.58.582 1.043 0 .348-.116.928-.465 1.625h.116c.465-.465.929-.697 1.394-.812.35 0 .813.115 1.395.465l.349.23c.233.232.465.35.581.232.116 0 .35-.115.465-.232v-.23c.116 0 .116 0 .116-.117l.232.117c-.116.23-.116.23-.116.348-.116.115-.116.115-.116.232-.348.463-.813.811-1.162.928-.232.115-.697 0-1.162-.35l-.581-.348c-.465-.23-.812-.348-1.161-.23-.232 0-.581.348-1.046.928l2.672 1.855.581-.812.114.117z"/><path fill-rule="evenodd" clip-rule="evenodd" d="m168.294 120.738.232.117-1.394 3.133-.233-.117.465-.928-2.556-1.16-3.951.58-.348.696-.233-.116 1.279-3.015.232.115-.349.928 3.253-.348v-.115l-1.974-2.553-.349.928-.232-.115.813-1.973.233.115-.233.697 2.207 2.901 2.673 1.275.465-1.045z"/></svg>