<svg id="Layer_1" data-name="Layer 1" xmlns="http://www.w3.org/2000/svg" viewBox="0 0 421 280.75"><path d="M198.5,268.25a12,12,0,0,0,12,12h198a12,12,0,0,0,12-12v-246h-222Z" style="fill:#4d4d4d;stroke:#585858;stroke-miterlimit:10"/><line x1="89.5" y1="198.5" x2="89.5" y2="256.5" style="fill:none;stroke:#ccc;stroke-linecap:round;stroke-linejoin:round;stroke-width:4px"/><line x1="89.5" y1="22.5" x2="89.5" y2="83.5" style="fill:none;stroke:#ccc;stroke-linecap:round;stroke-linejoin:round;stroke-width:4px"/><line x1="142" y1="137" x2="142" y2="84" style="fill:none;stroke:#ccc;stroke-linecap:round;stroke-linejoin:round;stroke-width:4px"/><line x1="89" y1="83" x2="142" y2="83" style="fill:none;stroke:#ccc;stroke-linecap:round;stroke-linejoin:round;stroke-width:4px"/><line x1="89" y1="83" x2="32" y2="83" style="fill:none;stroke:#ccc;stroke-linecap:round;stroke-linejoin:round;stroke-width:4px"/><line x1="32" y1="137" x2="32" y2="83" style="fill:none;stroke:#ccc;stroke-linecap:round;stroke-linejoin:round;stroke-width:4px"/><line x1="32" y1="137" x2="32" y2="198" style="fill:none;stroke:#ccc;stroke-linecap:round;stroke-linejoin:round;stroke-width:4px"/><line x1="89" y1="198" x2="32" y2="198" style="fill:none;stroke:#ccc;stroke-linecap:round;stroke-linejoin:round;stroke-width:4px"/><line x1="142" y1="137" x2="142" y2="198" style="fill:none;stroke:#ccc;stroke-linecap:round;stroke-linejoin:round;stroke-width:4px"/><line x1="142" y1="198" x2="89" y2="198" style="fill:none;stroke:#ccc;stroke-linecap:round;stroke-linejoin:round;stroke-width:4px"/><path d="M5.51,128h53a5,5,0,0,1,5,5v15a5,5,0,0,1-5,5h-53a5,5,0,0,1-5-5V133A5,5,0,0,1,5.51,128Z" style="fill:#f7941e;stroke:#585858;stroke-miterlimit:10"/><path d="M115.51,128h53a5,5,0,0,1,5,5v15a5,5,0,0,1-5,5h-53a5,5,0,0,1-5-5V133A5,5,0,0,1,115.51,128Z" style="fill:#f7941e;stroke:#585858;stroke-miterlimit:10"/><path d="M63,185.5h53a5,5,0,0,1,5,5v15a5,5,0,0,1-5,5H63a5,5,0,0,1-5-5v-15A5,5,0,0,1,63,185.5Z" style="fill:#003f7f;stroke:#585858;stroke-miterlimit:10"/><circle cx="89.5" cy="22.5" r="17" style="fill:#6dcff6;stroke:#585858;stroke-miterlimit:10"/><polygon points="114.5 83 89.5 69.22 64.5 83 89.5 96.78 114.5 83" style="fill:#f6d06c;stroke:#585858;stroke-miterlimit:10"/><path d="M63.51,243.5h53a5,5,0,0,1,5,5v15a5,5,0,0,1-5,5h-53a5,5,0,0,1-5-5v-15A5,5,0,0,1,63.51,243.5Z" style="fill:#d7df21;stroke:#585858;stroke-miterlimit:10"/><path d="M408.5.5h-198a12,12,0,0,0-12,12v10h222v-10A12,12,0,0,0,408.5.5Z" style="fill:#ccc;stroke:#585858;stroke-miterlimit:10"/><circle cx="368" cy="12" r="5" style="fill:#d7df21;stroke:#585858;stroke-miterlimit:10"/><circle cx="407" cy="12" r="5" style="fill:#f7941e;stroke:#585858;stroke-miterlimit:10"/><circle cx="387.5" cy="12" r="5" style="fill:#00aeef;stroke:#585858;stroke-miterlimit:10"/><rect x="202" y="41.25" width="18" height="10" rx="5" style="fill:#f2f2f2"/><rect x="202" y="56.25" width="18" height="10" rx="5" style="fill:#f2f2f2"/><rect x="202" y="71.25" width="18" height="10" rx="5" style="fill:#f2f2f2"/><rect x="202" y="86.25" width="18" height="10" rx="5" style="fill:#f2f2f2"/><rect x="202" y="101.25" width="18" height="10" rx="5" style="fill:#f2f2f2"/><rect x="202" y="116.25" width="18" height="10" rx="5" style="fill:#f2f2f2"/><rect x="202" y="131.25" width="18" height="10" rx="5" style="fill:#f2f2f2"/><rect x="202" y="146.25" width="18" height="10" rx="5" style="fill:#f2f2f2"/><rect x="202" y="161.25" width="18" height="10" rx="5" style="fill:#f2f2f2"/><rect x="202" y="176.25" width="18" height="10" rx="5" style="fill:#f2f2f2"/><rect x="202" y="191.25" width="18" height="10" rx="5" style="fill:#f2f2f2"/><rect x="202" y="206.25" width="18" height="10" rx="5" style="fill:#f2f2f2"/><rect x="202" y="221.25" width="18" height="10" rx="5" style="fill:#f2f2f2"/><rect x="202" y="236.25" width="18" height="10" rx="5" style="fill:#f2f2f2"/><rect x="202" y="251.25" width="18" height="10" rx="5" style="fill:#f2f2f2"/><rect x="231" y="41" width="50" height="10" rx="5" style="fill:#d7df21"/><rect x="231" y="56" width="50" height="10" rx="5" style="fill:#f7941e"/><rect x="250" y="71" width="50" height="10" rx="5" style="fill:#f6d06c"/><rect x="250" y="86" width="50" height="10" rx="5" style="fill:#f7941e"/><rect x="280" y="102" width="90" height="10" rx="5" style="fill:#f6d06c"/><rect x="227" y="116" width="50" height="10" rx="5" style="fill:#1a80c9"/><rect x="227" y="132" width="50" height="10" rx="5" style="fill:#f6d06c"/><rect x="285" y="146" width="50" height="10" rx="5" style="fill:#1a80c9"/><rect x="250" y="161" width="50" height="10" rx="5" style="fill:#f7941e"/><rect x="227" y="176" width="50" height="10" rx="5" style="fill:#6dcff6"/><rect x="227" y="191" width="50" height="10" rx="5" style="fill:#d7df21"/><rect x="227" y="206" width="50" height="10" rx="5" style="fill:#f6d06c"/><rect x="227" y="221" width="50" height="10" rx="5" style="fill:#f7941e"/><rect x="250" y="236" width="50" height="10" rx="5" style="fill:#1a80c9"/><rect x="227" y="251" width="50" height="10" rx="5" style="fill:#f7941e"/><rect x="286" y="41" width="100" height="10" rx="5" style="fill:#1a80c9"/><rect x="305" y="161" width="100" height="10" rx="5" style="fill:#f6d06c"/><rect x="281" y="191" width="100" height="10" rx="5" style="fill:#f7941e"/><rect x="281" y="251" width="70" height="10" rx="5" style="fill:#f6d06c"/><rect x="250" y="146" width="30" height="10" rx="5" style="fill:#d7df21"/><rect x="281" y="207" width="50" height="10" rx="5" style="fill:#6dcff6"/><rect x="280" y="116" width="50" height="10" rx="5" style="fill:#f7941e"/><rect x="303" y="86" width="90" height="10" rx="5" style="fill:#6dcff6"/><rect x="303" y="71" width="70" height="10" rx="5" style="fill:#6dcff6"/><rect x="280" y="132" width="30" height="10" rx="5" style="fill:#d7df21"/><rect x="281" y="176" width="90" height="10" rx="5" style="fill:#1a80c9"/><rect x="280" y="221" width="100" height="10" rx="5" style="fill:#6dcff6"/><rect x="305" y="236" width="50" height="10" rx="5" style="fill:#d7df21"/></svg>