<svg id="Layer_1" data-name="Layer 1" xmlns="http://www.w3.org/2000/svg" xmlns:xlink="http://www.w3.org/1999/xlink" viewBox="0 0 1920 1080"><defs><linearGradient id="linear-gradient" x1="182.13" y1="1355.48" x2="164.98" y2="1300.1" gradientTransform="translate(0 -1048)" gradientUnits="userSpaceOnUse"><stop offset="0" stop-color="#512"/><stop offset="0.23" stop-color="#523"/><stop offset="0.36" stop-color="#534"/><stop offset="0.51" stop-color="#645"/><stop offset="0.66" stop-color="#568"/><stop offset="0.84" stop-color="#29d"/></linearGradient><linearGradient id="linear-gradient-2" x1="319.25" y1="736.77" x2="128.8" y2="783.54" gradientTransform="matrix(1, 0, 0, -1, 0, 1082)" gradientUnits="userSpaceOnUse"><stop offset="0.08" stop-color="#c33"/><stop offset="0.19" stop-color="#de5239"/><stop offset="0.31" stop-color="#f06e3e"/><stop offset="0.42" stop-color="#fa8042"/><stop offset="0.5" stop-color="#fe8643"/><stop offset="0.58" stop-color="#fa7f42"/><stop offset="0.7" stop-color="#ef6c3e"/><stop offset="0.83" stop-color="#dc4c37"/><stop offset="0.92" stop-color="#cf3633"/></linearGradient><linearGradient id="linear-gradient-3" x1="724.18" y1="855.19" x2="625.82" y2="684.81" gradientUnits="userSpaceOnUse"><stop offset="0" stop-color="#f7941e"/><stop offset="1" stop-color="#f5c037"/></linearGradient><linearGradient id="linear-gradient-4" x1="488.81" y1="460.56" x2="557.25" y2="579.11" gradientUnits="userSpaceOnUse"><stop offset="0" stop-color="#00aeef"/><stop offset="1" stop-color="#1a80c9"/></linearGradient></defs><path d="M10.38,872a18,18,0,0,0,17.83,18.2H322.54A18,18,0,0,0,340.38,872V498.83h-330Z" style="fill:#4d4d4d;stroke:#585858;stroke-miterlimit:10"/><path d="M322.54,465.84H28.21A18,18,0,0,0,10.38,484v15.17h330V484A18,18,0,0,0,322.54,465.84Z" style="fill:#ccc;stroke:#585858;stroke-miterlimit:10"/><ellipse cx="262.34" cy="483.28" rx="7.43" ry="7.59" style="fill:#d7df21;stroke:#585858;stroke-miterlimit:10"/><ellipse cx="320.31" cy="483.28" rx="7.43" ry="7.59" style="fill:#f7941e;stroke:#585858;stroke-miterlimit:10"/><ellipse cx="291.32" cy="483.28" rx="7.43" ry="7.59" style="fill:#00aeef;stroke:#585858;stroke-miterlimit:10"/><path d="M23,527.65H34.9a7.52,7.52,0,0,1,7.44,7.59h0a7.51,7.51,0,0,1-7.44,7.58H23a7.51,7.51,0,0,1-7.43-7.58h0A7.51,7.51,0,0,1,23,527.65Z" style="fill:#f2f2f2"/><path d="M23,550.41H34.9A7.51,7.51,0,0,1,42.34,558h0a7.52,7.52,0,0,1-7.44,7.59H23A7.51,7.51,0,0,1,15.58,558h0A7.51,7.51,0,0,1,23,550.41Z" style="fill:#f2f2f2"/><path d="M23,573.16H34.9a7.52,7.52,0,0,1,7.44,7.59h0a7.51,7.51,0,0,1-7.44,7.58H23a7.51,7.51,0,0,1-7.43-7.58h0A7.51,7.51,0,0,1,23,573.16Z" style="fill:#f2f2f2"/><path d="M23,595.92H34.9a7.51,7.51,0,0,1,7.44,7.58h0a7.52,7.52,0,0,1-7.44,7.59H23a7.51,7.51,0,0,1-7.43-7.59h0A7.51,7.51,0,0,1,23,595.92Z" style="fill:#f2f2f2"/><path d="M23,618.67H34.9a7.52,7.52,0,0,1,7.44,7.59h0a7.52,7.52,0,0,1-7.44,7.59H23a7.51,7.51,0,0,1-7.43-7.59h0A7.51,7.51,0,0,1,23,618.67Z" style="fill:#f2f2f2"/><path d="M23,641.43H34.9A7.52,7.52,0,0,1,42.34,649h0a7.51,7.51,0,0,1-7.44,7.58H23A7.51,7.51,0,0,1,15.58,649h0A7.51,7.51,0,0,1,23,641.43Z" style="fill:#f2f2f2"/><path d="M23,664.19H34.9a7.51,7.51,0,0,1,7.44,7.58h0a7.52,7.52,0,0,1-7.44,7.59H23a7.51,7.51,0,0,1-7.43-7.59h0A7.51,7.51,0,0,1,23,664.19Z" style="fill:#f2f2f2"/><path d="M23,686.94H34.9a7.52,7.52,0,0,1,7.44,7.59h0a7.51,7.51,0,0,1-7.44,7.58H23a7.51,7.51,0,0,1-7.43-7.58h0A7.51,7.51,0,0,1,23,686.94Z" style="fill:#f2f2f2"/><path d="M23,709.7H34.9a7.51,7.51,0,0,1,7.44,7.58h0a7.52,7.52,0,0,1-7.44,7.59H23a7.51,7.51,0,0,1-7.43-7.59h0A7.51,7.51,0,0,1,23,709.7Z" style="fill:#f2f2f2"/><path d="M23,732.45H34.9A7.52,7.52,0,0,1,42.34,740h0a7.51,7.51,0,0,1-7.44,7.58H23A7.51,7.51,0,0,1,15.58,740h0A7.51,7.51,0,0,1,23,732.45Z" style="fill:#f2f2f2"/><path d="M23,755.21H34.9a7.51,7.51,0,0,1,7.44,7.58h0a7.52,7.52,0,0,1-7.44,7.59H23a7.51,7.51,0,0,1-7.43-7.59h0A7.51,7.51,0,0,1,23,755.21Z" style="fill:#f2f2f2"/><path d="M23,778H34.9a7.52,7.52,0,0,1,7.44,7.59h0a7.51,7.51,0,0,1-7.44,7.58H23a7.51,7.51,0,0,1-7.43-7.58h0A7.51,7.51,0,0,1,23,778Z" style="fill:#f2f2f2"/><path d="M23,800.72H34.9a7.51,7.51,0,0,1,7.44,7.58h0a7.52,7.52,0,0,1-7.44,7.59H23a7.51,7.51,0,0,1-7.43-7.59h0A7.51,7.51,0,0,1,23,800.72Z" style="fill:#f2f2f2"/><path d="M23,823.47H34.9a7.52,7.52,0,0,1,7.44,7.59h0a7.51,7.51,0,0,1-7.44,7.58H23a7.51,7.51,0,0,1-7.43-7.58h0A7.51,7.51,0,0,1,23,823.47Z" style="fill:#f2f2f2"/><path d="M23,846.23H34.9a7.51,7.51,0,0,1,7.44,7.58h0a7.52,7.52,0,0,1-7.44,7.59H23a7.51,7.51,0,0,1-7.43-7.59h0A7.51,7.51,0,0,1,23,846.23Z" style="fill:#f2f2f2"/><path d="M66.12,527.27h59.46a7.51,7.51,0,0,1,7.43,7.59h0a7.51,7.51,0,0,1-7.43,7.58H66.12a7.51,7.51,0,0,1-7.43-7.58h0A7.51,7.51,0,0,1,66.12,527.27Z" style="fill:#d7df21"/><path d="M66.12,550h59.46a7.51,7.51,0,0,1,7.43,7.58h0a7.51,7.51,0,0,1-7.43,7.59H66.12a7.51,7.51,0,0,1-7.43-7.59h0A7.51,7.51,0,0,1,66.12,550Z" style="fill:#f7941e"/><path d="M94.36,572.79h59.46a7.51,7.51,0,0,1,7.44,7.58h0a7.52,7.52,0,0,1-7.44,7.59H94.36a7.51,7.51,0,0,1-7.43-7.59h0A7.51,7.51,0,0,1,94.36,572.79Z" style="fill:#f6d06c"/><path d="M94.36,595.54h59.46a7.52,7.52,0,0,1,7.44,7.59h0a7.51,7.51,0,0,1-7.44,7.58H94.36a7.51,7.51,0,0,1-7.43-7.58h0A7.51,7.51,0,0,1,94.36,595.54Z" style="fill:#f7941e"/><path d="M139,619.81H257.88a7.51,7.51,0,0,1,7.43,7.59h0a7.51,7.51,0,0,1-7.43,7.58H139a7.5,7.5,0,0,1-7.43-7.58h0A7.51,7.51,0,0,1,139,619.81Z" style="fill:#f6d06c"/><path d="M60.17,641.05h59.46a7.52,7.52,0,0,1,7.44,7.59h0a7.51,7.51,0,0,1-7.44,7.58H60.17a7.51,7.51,0,0,1-7.43-7.58h0A7.51,7.51,0,0,1,60.17,641.05Z" style="fill:#1a80c9"/><path d="M60.17,665.32h59.46a7.52,7.52,0,0,1,7.44,7.59h0a7.51,7.51,0,0,1-7.44,7.58H60.17a7.51,7.51,0,0,1-7.43-7.58h0A7.51,7.51,0,0,1,60.17,665.32Z" style="fill:#f6d06c"/><path d="M146.39,686.56h59.46a7.51,7.51,0,0,1,7.43,7.59h0a7.51,7.51,0,0,1-7.43,7.58H146.39a7.51,7.51,0,0,1-7.43-7.58h0A7.51,7.51,0,0,1,146.39,686.56Z" style="fill:#1a80c9"/><path d="M94.36,709.32h59.46a7.51,7.51,0,0,1,7.44,7.58h0a7.52,7.52,0,0,1-7.44,7.59H94.36a7.51,7.51,0,0,1-7.43-7.59h0A7.51,7.51,0,0,1,94.36,709.32Z" style="fill:#f7941e"/><path d="M60.17,732.07h59.46a7.52,7.52,0,0,1,7.44,7.59h0a7.51,7.51,0,0,1-7.44,7.58H60.17a7.51,7.51,0,0,1-7.43-7.58h0A7.51,7.51,0,0,1,60.17,732.07Z" style="fill:#6dcff6"/><path d="M60.17,754.83h59.46a7.51,7.51,0,0,1,7.44,7.58h0a7.52,7.52,0,0,1-7.44,7.59H60.17a7.51,7.51,0,0,1-7.43-7.59h0A7.51,7.51,0,0,1,60.17,754.83Z" style="fill:#d7df21"/><path d="M60.17,777.58h59.46a7.52,7.52,0,0,1,7.44,7.59h0a7.51,7.51,0,0,1-7.44,7.58H60.17a7.51,7.51,0,0,1-7.43-7.58h0A7.51,7.51,0,0,1,60.17,777.58Z" style="fill:#f6d06c"/><path d="M60.17,800.34h59.46a7.51,7.51,0,0,1,7.44,7.58h0a7.52,7.52,0,0,1-7.44,7.59H60.17a7.51,7.51,0,0,1-7.43-7.59h0A7.51,7.51,0,0,1,60.17,800.34Z" style="fill:#f7941e"/><path d="M94.36,823.09h59.46a7.52,7.52,0,0,1,7.44,7.59h0a7.51,7.51,0,0,1-7.44,7.58H94.36a7.51,7.51,0,0,1-7.43-7.58h0A7.51,7.51,0,0,1,94.36,823.09Z" style="fill:#1a80c9"/><path d="M60.17,845.85h59.46a7.51,7.51,0,0,1,7.44,7.58h0a7.52,7.52,0,0,1-7.44,7.59H60.17a7.51,7.51,0,0,1-7.43-7.59h0A7.51,7.51,0,0,1,60.17,845.85Z" style="fill:#f7941e"/><path d="M147.88,527.27H281.66a7.51,7.51,0,0,1,7.43,7.59h0a7.5,7.5,0,0,1-7.43,7.58H147.88a7.51,7.51,0,0,1-7.44-7.58h0A7.52,7.52,0,0,1,147.88,527.27Z" style="fill:#1a80c9"/><path d="M176.12,709.32H309.9a7.51,7.51,0,0,1,7.44,7.58h0a7.52,7.52,0,0,1-7.44,7.59H176.12a7.51,7.51,0,0,1-7.43-7.59h0A7.51,7.51,0,0,1,176.12,709.32Z" style="fill:#f6d06c"/><path d="M140.44,754.83H274.23a7.51,7.51,0,0,1,7.43,7.58h0a7.51,7.51,0,0,1-7.43,7.59H140.44a7.51,7.51,0,0,1-7.43-7.59h0A7.51,7.51,0,0,1,140.44,754.83Z" style="fill:#f7941e"/><path d="M140.44,845.85h89.19a7.51,7.51,0,0,1,7.44,7.58h0a7.52,7.52,0,0,1-7.44,7.59H140.44a7.51,7.51,0,0,1-7.43-7.59h0A7.51,7.51,0,0,1,140.44,845.85Z" style="fill:#f6d06c"/><path d="M94.36,686.56h29.73a7.52,7.52,0,0,1,7.44,7.59h0a7.51,7.51,0,0,1-7.44,7.58H94.36a7.51,7.51,0,0,1-7.43-7.58h0A7.51,7.51,0,0,1,94.36,686.56Z" style="fill:#d7df21"/><path d="M140.44,779.1H199.9a7.52,7.52,0,0,1,7.44,7.59h0a7.51,7.51,0,0,1-7.44,7.58H140.44a7.51,7.51,0,0,1-7.43-7.58h0A7.51,7.51,0,0,1,140.44,779.1Z" style="fill:#6dcff6"/><path d="M139,641.05h59.46a7.51,7.51,0,0,1,7.43,7.59h0a7.51,7.51,0,0,1-7.43,7.58H139a7.5,7.5,0,0,1-7.43-7.58h0A7.51,7.51,0,0,1,139,641.05Z" style="fill:#f7941e"/><path d="M173.15,595.54H292.07a7.51,7.51,0,0,1,7.43,7.59h0a7.51,7.51,0,0,1-7.43,7.58H173.15a7.51,7.51,0,0,1-7.44-7.58h0A7.52,7.52,0,0,1,173.15,595.54Z" style="fill:#6dcff6"/><path d="M173.15,572.79h89.19a7.51,7.51,0,0,1,7.43,7.58h0a7.51,7.51,0,0,1-7.43,7.59H173.15a7.52,7.52,0,0,1-7.44-7.59h0A7.51,7.51,0,0,1,173.15,572.79Z" style="fill:#6dcff6"/><path d="M139,665.32h29.73a7.51,7.51,0,0,1,7.43,7.59h0a7.51,7.51,0,0,1-7.43,7.58H139a7.5,7.5,0,0,1-7.43-7.58h0A7.51,7.51,0,0,1,139,665.32Z" style="fill:#d7df21"/><path d="M140.44,732.07H259.36a7.52,7.52,0,0,1,7.44,7.59h0a7.51,7.51,0,0,1-7.44,7.58H140.44a7.51,7.51,0,0,1-7.43-7.58h0A7.51,7.51,0,0,1,140.44,732.07Z" style="fill:#1a80c9"/><path d="M139,800.34H272.74a7.5,7.5,0,0,1,7.43,7.58h0a7.51,7.51,0,0,1-7.43,7.59H139a7.51,7.51,0,0,1-7.43-7.59h0A7.5,7.5,0,0,1,139,800.34Z" style="fill:#6dcff6"/><path d="M176.12,823.09h59.46a7.51,7.51,0,0,1,7.43,7.59h0a7.51,7.51,0,0,1-7.43,7.58H176.12a7.51,7.51,0,0,1-7.43-7.58h0A7.51,7.51,0,0,1,176.12,823.09Z" style="fill:#d7df21"/><path d="M26.84,329.09l84.56-31.38A209.13,209.13,0,0,1,140.26,269c7-3.41,20.16-1.56,44.24-29,23.34-26.8,30.77-49.7,41.7-49.7,17.29,0,30,34.3,49.33,86.25a1072.43,1072.43,0,0,0,48.38,116.64c-20.16-17.25-37.34-35.86-57-35.37-18.25.39-38.52,20.27-60.69,45.8C188.64,424,165.3,438,156.17,437.74c0,0-23.55-61.19-43.28-71.13a30.16,30.16,0,0,0-25.36,1.95L26.84,329Z" style="fill:#49d"/><path d="M215.69,197.24c-7.11,8.77-15.7,24.85-31.19,42.68-24.08,27.48-37.13,25.63-44.24,29a199.6,199.6,0,0,0-28.86,28.75l35,23.48c29.71-37.22,45.62-77.57,58-103.68A129.27,129.27,0,0,1,215.69,197.24Z" style="fill:url(#linear-gradient)"/><path d="M226.3,190.22c-23.13,0-38.93,111.87-124.34,174.34,24-3.61,44.77,51.06,54.32,73.18,42.44-6.62,76.39-81.17,110.66-80,19.63.68,36.81,18.12,57,35.37C277.87,304.24,256.33,190.22,226.3,190.22Z" style="fill:url(#linear-gradient-2)"/><path d="M1417,686.83a92.86,92.86,0,0,0-74.73-68.32,92.85,92.85,0,0,0-51.79-93.75,93.66,93.66,0,0,0-40.51-9.27A93.08,93.08,0,0,0,1178.54,549a92.82,92.82,0,0,0-148,40.81c-.85,0-1.7,0-2.54,0a92.83,92.83,0,0,0-40.38,176.36,93.07,93.07,0,0,0,54,8.27,95,95,0,0,0,5.71,8.37A91.81,91.81,0,0,0,1080.62,810a93.66,93.66,0,0,0,40.52,9.26h0a92.88,92.88,0,0,0,23.31-3c.84,1.21,1.7,2.39,2.55,3.51A91.81,91.81,0,0,0,1180.28,847a93.66,93.66,0,0,0,40.52,9.26,92.82,92.82,0,0,0,85-55.81,93.69,93.69,0,0,0,21.3,2.46,92.86,92.86,0,0,0,89.8-116Zm-2.8,34.86a87.85,87.85,0,0,1-87,76.22A88.41,88.41,0,0,1,1305,795.1l-2.1-.55-.82,2a87.85,87.85,0,0,1-151.15,20.2c-1.13-1.48-2.26-3.07-3.36-4.72l-1-1.51-1.74.49a87.73,87.73,0,0,1-23.7,3.26h0a87.26,87.26,0,0,1-69.85-34.5,90,90,0,0,1-6.24-9.31l-.86-1.48-1.69.28a88.54,88.54,0,0,1-14.37,1.18,87.84,87.84,0,1,1-.13-175.68c1.39,0,2.8,0,4.19.1l1.91.09.58-1.82a87.84,87.84,0,0,1,142.5-38.7l2,1.78,1.64-2.09a88.35,88.35,0,0,1,15.83-15.62A87.84,87.84,0,0,1,1337,620.26l-.33,2.46,2.45.34a87.85,87.85,0,0,1,75,98.63Z"/><text transform="translate(1123.47 664.51)" style="font-size:61.62393569946289px;font-family:SourceSansPro-Regular, Source Sans Pro">HDL<tspan x="-23.35" y="73.95">Coder</tspan></text><path d="M1580.38,872.24a17.9,17.9,0,0,0,17.83,18h294.33a17.91,17.91,0,0,0,17.84-18V503.72h-330Z" style="fill:#4d4d4d;stroke:#585858;stroke-miterlimit:10"/><path d="M1892.54,471.13H1598.21a17.9,17.9,0,0,0-17.83,18v15h330v-15A17.91,17.91,0,0,0,1892.54,471.13Z" style="fill:#ccc;stroke:#585858;stroke-miterlimit:10"/><ellipse cx="1832.34" cy="488.36" rx="7.43" ry="7.49" style="fill:#d7df21;stroke:#585858;stroke-miterlimit:10"/><ellipse cx="1890.31" cy="488.36" rx="7.43" ry="7.49" style="fill:#f7941e;stroke:#585858;stroke-miterlimit:10"/><ellipse cx="1861.32" cy="488.36" rx="7.43" ry="7.49" style="fill:#00aeef;stroke:#585858;stroke-miterlimit:10"/><path d="M1593,532.18h11.89a7.46,7.46,0,0,1,7.44,7.49h0a7.46,7.46,0,0,1-7.44,7.49H1593a7.46,7.46,0,0,1-7.43-7.49h0A7.46,7.46,0,0,1,1593,532.18Z" style="fill:#f2f2f2"/><path d="M1593,554.65h11.89a7.46,7.46,0,0,1,7.44,7.49h0a7.46,7.46,0,0,1-7.44,7.49H1593a7.46,7.46,0,0,1-7.43-7.49h0A7.46,7.46,0,0,1,1593,554.65Z" style="fill:#f2f2f2"/><path d="M1593,577.12h11.89a7.47,7.47,0,0,1,7.44,7.49h0a7.46,7.46,0,0,1-7.44,7.49H1593a7.46,7.46,0,0,1-7.43-7.49h0A7.47,7.47,0,0,1,1593,577.12Z" style="fill:#f2f2f2"/><path d="M1593,599.59h11.89a7.47,7.47,0,0,1,7.44,7.49h0a7.46,7.46,0,0,1-7.44,7.49H1593a7.46,7.46,0,0,1-7.43-7.49h0A7.47,7.47,0,0,1,1593,599.59Z" style="fill:#f2f2f2"/><path d="M1593,622.07h11.89a7.46,7.46,0,0,1,7.44,7.49h0a7.47,7.47,0,0,1-7.44,7.49H1593a7.47,7.47,0,0,1-7.43-7.49h0A7.46,7.46,0,0,1,1593,622.07Z" style="fill:#f2f2f2"/><path d="M1593,644.54h11.89a7.46,7.46,0,0,1,7.44,7.49h0a7.47,7.47,0,0,1-7.44,7.49H1593a7.47,7.47,0,0,1-7.43-7.49h0A7.46,7.46,0,0,1,1593,644.54Z" style="fill:#f2f2f2"/><path d="M1593,667h11.89a7.46,7.46,0,0,1,7.44,7.49h0a7.47,7.47,0,0,1-7.44,7.49H1593a7.47,7.47,0,0,1-7.43-7.49h0A7.46,7.46,0,0,1,1593,667Z" style="fill:#f2f2f2"/><path d="M1593,689.48h11.89a7.46,7.46,0,0,1,7.44,7.49h0a7.46,7.46,0,0,1-7.44,7.49H1593a7.46,7.46,0,0,1-7.43-7.49h0A7.46,7.46,0,0,1,1593,689.48Z" style="fill:#f2f2f2"/><path d="M1593,712h11.89a7.46,7.46,0,0,1,7.44,7.49h0a7.46,7.46,0,0,1-7.44,7.49H1593a7.46,7.46,0,0,1-7.43-7.49h0A7.46,7.46,0,0,1,1593,712Z" style="fill:#f2f2f2"/><path d="M1593,734.42h11.89a7.46,7.46,0,0,1,7.44,7.49h0a7.46,7.46,0,0,1-7.44,7.49H1593a7.46,7.46,0,0,1-7.43-7.49h0A7.46,7.46,0,0,1,1593,734.42Z" style="fill:#f2f2f2"/><path d="M1593,756.89h11.89a7.47,7.47,0,0,1,7.44,7.49h0a7.46,7.46,0,0,1-7.44,7.49H1593a7.46,7.46,0,0,1-7.43-7.49h0A7.47,7.47,0,0,1,1593,756.89Z" style="fill:#f2f2f2"/><path d="M1593,779.36h11.89a7.47,7.47,0,0,1,7.44,7.49h0a7.46,7.46,0,0,1-7.44,7.49H1593a7.46,7.46,0,0,1-7.43-7.49h0A7.47,7.47,0,0,1,1593,779.36Z" style="fill:#f2f2f2"/><path d="M1593,801.83h11.89a7.47,7.47,0,0,1,7.44,7.5h0a7.47,7.47,0,0,1-7.44,7.49H1593a7.47,7.47,0,0,1-7.43-7.49h0A7.47,7.47,0,0,1,1593,801.83Z" style="fill:#f2f2f2"/><path d="M1593,824.31h11.89a7.46,7.46,0,0,1,7.44,7.49h0a7.47,7.47,0,0,1-7.44,7.49H1593a7.47,7.47,0,0,1-7.43-7.49h0A7.46,7.46,0,0,1,1593,824.31Z" style="fill:#f2f2f2"/><path d="M1593,846.78h11.89a7.46,7.46,0,0,1,7.44,7.49h0a7.47,7.47,0,0,1-7.44,7.49H1593a7.47,7.47,0,0,1-7.43-7.49h0A7.46,7.46,0,0,1,1593,846.78Z" style="fill:#f2f2f2"/><path d="M1636.12,531.81h59.46a7.46,7.46,0,0,1,7.43,7.49h0a7.47,7.47,0,0,1-7.43,7.49h-59.46a7.47,7.47,0,0,1-7.43-7.49h0A7.46,7.46,0,0,1,1636.12,531.81Z" style="fill:#d7df21"/><path d="M1636.12,554.28h59.46a7.46,7.46,0,0,1,7.43,7.49h0a7.47,7.47,0,0,1-7.43,7.49h-59.46a7.47,7.47,0,0,1-7.43-7.49h0A7.46,7.46,0,0,1,1636.12,554.28Z" style="fill:#f7941e"/><path d="M1664.36,576.75h59.46a7.46,7.46,0,0,1,7.44,7.49h0a7.46,7.46,0,0,1-7.44,7.49h-59.46a7.46,7.46,0,0,1-7.43-7.49h0A7.46,7.46,0,0,1,1664.36,576.75Z" style="fill:#f6d06c"/><path d="M1664.36,599.22h59.46a7.46,7.46,0,0,1,7.44,7.49h0a7.46,7.46,0,0,1-7.44,7.49h-59.46a7.46,7.46,0,0,1-7.43-7.49h0A7.46,7.46,0,0,1,1664.36,599.22Z" style="fill:#f7941e"/><path d="M1709,623.19h118.92a7.46,7.46,0,0,1,7.43,7.49h0a7.46,7.46,0,0,1-7.43,7.49H1709a7.45,7.45,0,0,1-7.43-7.49h0A7.45,7.45,0,0,1,1709,623.19Z" style="fill:#f6d06c"/><path d="M1630.17,644.16h59.46a7.47,7.47,0,0,1,7.44,7.49h0a7.46,7.46,0,0,1-7.44,7.49h-59.46a7.46,7.46,0,0,1-7.43-7.49h0A7.47,7.47,0,0,1,1630.17,644.16Z" style="fill:#1a80c9"/><path d="M1630.17,668.13h59.46a7.46,7.46,0,0,1,7.44,7.49h0a7.46,7.46,0,0,1-7.44,7.49h-59.46a7.46,7.46,0,0,1-7.43-7.49h0A7.46,7.46,0,0,1,1630.17,668.13Z" style="fill:#f6d06c"/><path d="M1716.39,689.1h59.46a7.47,7.47,0,0,1,7.43,7.49h0a7.47,7.47,0,0,1-7.43,7.5h-59.46a7.47,7.47,0,0,1-7.43-7.5h0A7.47,7.47,0,0,1,1716.39,689.1Z" style="fill:#1a80c9"/><path d="M1664.36,711.58h59.46a7.46,7.46,0,0,1,7.44,7.49h0a7.47,7.47,0,0,1-7.44,7.49h-59.46a7.47,7.47,0,0,1-7.43-7.49h0A7.46,7.46,0,0,1,1664.36,711.58Z" style="fill:#f7941e"/><path d="M1630.17,734.05h59.46a7.46,7.46,0,0,1,7.44,7.49h0a7.47,7.47,0,0,1-7.44,7.49h-59.46a7.47,7.47,0,0,1-7.43-7.49h0A7.46,7.46,0,0,1,1630.17,734.05Z" style="fill:#6dcff6"/><path d="M1630.17,756.52h59.46a7.46,7.46,0,0,1,7.44,7.49h0a7.46,7.46,0,0,1-7.44,7.49h-59.46a7.46,7.46,0,0,1-7.43-7.49h0A7.46,7.46,0,0,1,1630.17,756.52Z" style="fill:#d7df21"/><path d="M1630.17,779h59.46a7.46,7.46,0,0,1,7.44,7.49h0a7.46,7.46,0,0,1-7.44,7.49h-59.46a7.46,7.46,0,0,1-7.43-7.49h0A7.46,7.46,0,0,1,1630.17,779Z" style="fill:#f6d06c"/><path d="M1630.17,801.46h59.46a7.46,7.46,0,0,1,7.44,7.49h0a7.46,7.46,0,0,1-7.44,7.49h-59.46a7.46,7.46,0,0,1-7.43-7.49h0A7.46,7.46,0,0,1,1630.17,801.46Z" style="fill:#f7941e"/><path d="M1664.36,823.93h59.46a7.47,7.47,0,0,1,7.44,7.49h0a7.46,7.46,0,0,1-7.44,7.49h-59.46a7.46,7.46,0,0,1-7.43-7.49h0A7.47,7.47,0,0,1,1664.36,823.93Z" style="fill:#1a80c9"/><path d="M1630.17,846.4h59.46a7.47,7.47,0,0,1,7.44,7.49h0a7.46,7.46,0,0,1-7.44,7.49h-59.46a7.46,7.46,0,0,1-7.43-7.49h0A7.47,7.47,0,0,1,1630.17,846.4Z" style="fill:#f7941e"/><path d="M1717.88,531.81h133.78a7.45,7.45,0,0,1,7.43,7.49h0a7.46,7.46,0,0,1-7.43,7.49H1717.88a7.47,7.47,0,0,1-7.44-7.49h0A7.46,7.46,0,0,1,1717.88,531.81Z" style="fill:#1a80c9"/><path d="M1746.12,711.58H1879.9a7.46,7.46,0,0,1,7.44,7.49h0a7.47,7.47,0,0,1-7.44,7.49H1746.12a7.47,7.47,0,0,1-7.43-7.49h0A7.46,7.46,0,0,1,1746.12,711.58Z" style="fill:#f6d06c"/><path d="M1710.44,756.52h133.79a7.46,7.46,0,0,1,7.43,7.49h0a7.46,7.46,0,0,1-7.43,7.49H1710.44A7.46,7.46,0,0,1,1703,764h0A7.46,7.46,0,0,1,1710.44,756.52Z" style="fill:#f7941e"/><path d="M1710.44,846.4h89.19a7.47,7.47,0,0,1,7.44,7.49h0a7.46,7.46,0,0,1-7.44,7.49h-89.19a7.46,7.46,0,0,1-7.43-7.49h0A7.47,7.47,0,0,1,1710.44,846.4Z" style="fill:#f6d06c"/><path d="M1664.36,689.1h29.73a7.47,7.47,0,0,1,7.44,7.49h0a7.47,7.47,0,0,1-7.44,7.5h-29.73a7.47,7.47,0,0,1-7.43-7.5h0A7.47,7.47,0,0,1,1664.36,689.1Z" style="fill:#d7df21"/><path d="M1710.44,780.49h59.46a7.46,7.46,0,0,1,7.44,7.49h0a7.47,7.47,0,0,1-7.44,7.49h-59.46A7.47,7.47,0,0,1,1703,788h0A7.46,7.46,0,0,1,1710.44,780.49Z" style="fill:#6dcff6"/><path d="M1709,644.16h59.46a7.47,7.47,0,0,1,7.43,7.49h0a7.46,7.46,0,0,1-7.43,7.49H1709a7.45,7.45,0,0,1-7.43-7.49h0A7.46,7.46,0,0,1,1709,644.16Z" style="fill:#f7941e"/><path d="M1743.15,599.22h118.92a7.46,7.46,0,0,1,7.43,7.49h0a7.46,7.46,0,0,1-7.43,7.49H1743.15a7.46,7.46,0,0,1-7.44-7.49h0A7.46,7.46,0,0,1,1743.15,599.22Z" style="fill:#6dcff6"/><path d="M1743.15,576.75h89.19a7.46,7.46,0,0,1,7.43,7.49h0a7.46,7.46,0,0,1-7.43,7.49h-89.19a7.46,7.46,0,0,1-7.44-7.49h0A7.46,7.46,0,0,1,1743.15,576.75Z" style="fill:#6dcff6"/><path d="M1709,668.13h29.73a7.46,7.46,0,0,1,7.43,7.49h0a7.46,7.46,0,0,1-7.43,7.49H1709a7.45,7.45,0,0,1-7.43-7.49h0A7.45,7.45,0,0,1,1709,668.13Z" style="fill:#d7df21"/><path d="M1710.44,734.05h118.92a7.46,7.46,0,0,1,7.44,7.49h0a7.47,7.47,0,0,1-7.44,7.49H1710.44a7.47,7.47,0,0,1-7.43-7.49h0A7.46,7.46,0,0,1,1710.44,734.05Z" style="fill:#1a80c9"/><path d="M1709,801.46h133.78a7.45,7.45,0,0,1,7.43,7.49h0a7.45,7.45,0,0,1-7.43,7.49H1709a7.45,7.45,0,0,1-7.43-7.49h0A7.45,7.45,0,0,1,1709,801.46Z" style="fill:#6dcff6"/><path d="M1746.12,823.93h59.46a7.47,7.47,0,0,1,7.43,7.49h0a7.46,7.46,0,0,1-7.43,7.49h-59.46a7.46,7.46,0,0,1-7.43-7.49h0A7.47,7.47,0,0,1,1746.12,823.93Z" style="fill:#d7df21"/><g id="IC_outline" data-name="IC outline"><rect x="1645.33" y="213.54" width="206.13" height="207.73" rx="11.64" style="fill:#4d4d4d;stroke:#666;stroke-miterlimit:10;stroke-width:4px"/><line x1="1646.86" y1="227.01" x2="1624.31" y2="226.99" style="fill:#4d4d4d;stroke:#666;stroke-miterlimit:10;stroke-width:4px"/><line x1="1646.86" y1="407.69" x2="1624.31" y2="407.67" style="fill:#4d4d4d;stroke:#666;stroke-miterlimit:10;stroke-width:4px"/><line x1="1646.86" y1="384.97" x2="1624.31" y2="384.95" style="fill:#4d4d4d;stroke:#666;stroke-miterlimit:10;stroke-width:4px"/><line x1="1646.86" y1="362.25" x2="1624.31" y2="362.23" style="fill:#4d4d4d;stroke:#666;stroke-miterlimit:10;stroke-width:4px"/><line x1="1646.86" y1="339.53" x2="1624.31" y2="339.51" style="fill:#4d4d4d;stroke:#666;stroke-miterlimit:10;stroke-width:4px"/><line x1="1646.86" y1="317.89" x2="1624.31" y2="317.87" style="fill:#4d4d4d;stroke:#666;stroke-miterlimit:10;stroke-width:4px"/><line x1="1646.86" y1="295.17" x2="1624.31" y2="295.15" style="fill:#4d4d4d;stroke:#666;stroke-miterlimit:10;stroke-width:4px"/><line x1="1646.86" y1="272.45" x2="1624.31" y2="272.43" style="fill:#4d4d4d;stroke:#666;stroke-miterlimit:10;stroke-width:4px"/><line x1="1646.86" y1="249.73" x2="1624.31" y2="249.71" style="fill:#4d4d4d;stroke:#666;stroke-miterlimit:10;stroke-width:4px"/><line x1="1837.95" y1="211.86" x2="1837.86" y2="190.22" style="fill:#4d4d4d;stroke:#666;stroke-miterlimit:10;stroke-width:4px"/><line x1="1659.74" y1="212.94" x2="1659.64" y2="190.22" style="fill:#4d4d4d;stroke:#666;stroke-miterlimit:10;stroke-width:4px"/><line x1="1681.21" y1="212.94" x2="1681.12" y2="190.22" style="fill:#4d4d4d;stroke:#666;stroke-miterlimit:10;stroke-width:4px"/><line x1="1703.76" y1="212.94" x2="1703.66" y2="190.22" style="fill:#4d4d4d;stroke:#666;stroke-miterlimit:10;stroke-width:4px"/><line x1="1726.3" y1="212.94" x2="1726.21" y2="190.22" style="fill:#4d4d4d;stroke:#666;stroke-miterlimit:10;stroke-width:4px"/><line x1="1748.85" y1="212.94" x2="1748.75" y2="190.22" style="fill:#4d4d4d;stroke:#666;stroke-miterlimit:10;stroke-width:4px"/><line x1="1771.39" y1="212.94" x2="1771.3" y2="190.22" style="fill:#4d4d4d;stroke:#666;stroke-miterlimit:10;stroke-width:4px"/><line x1="1792.86" y1="211.86" x2="1792.77" y2="190.22" style="fill:#4d4d4d;stroke:#666;stroke-miterlimit:10;stroke-width:4px"/><line x1="1815.41" y1="211.86" x2="1815.31" y2="190.22" style="fill:#4d4d4d;stroke:#666;stroke-miterlimit:10;stroke-width:4px"/><line x1="1661.89" y1="420.68" x2="1661.87" y2="443.4" style="fill:#4d4d4d;stroke:#666;stroke-miterlimit:10;stroke-width:4px"/><line x1="1840.1" y1="420.68" x2="1840.08" y2="443.4" style="fill:#4d4d4d;stroke:#666;stroke-miterlimit:10;stroke-width:4px"/><line x1="1817.55" y1="420.68" x2="1817.53" y2="443.4" style="fill:#4d4d4d;stroke:#666;stroke-miterlimit:10;stroke-width:4px"/><line x1="1795.01" y1="420.68" x2="1794.99" y2="443.4" style="fill:#4d4d4d;stroke:#666;stroke-miterlimit:10;stroke-width:4px"/><line x1="1773.54" y1="420.68" x2="1773.52" y2="443.4" style="fill:#4d4d4d;stroke:#666;stroke-miterlimit:10;stroke-width:4px"/><line x1="1750.99" y1="420.68" x2="1750.97" y2="443.4" style="fill:#4d4d4d;stroke:#666;stroke-miterlimit:10;stroke-width:4px"/><line x1="1728.45" y1="420.68" x2="1728.43" y2="443.4" style="fill:#4d4d4d;stroke:#666;stroke-miterlimit:10;stroke-width:4px"/><line x1="1705.9" y1="420.68" x2="1705.88" y2="443.4" style="fill:#4d4d4d;stroke:#666;stroke-miterlimit:10;stroke-width:4px"/><line x1="1683.36" y1="420.68" x2="1683.34" y2="443.4" style="fill:#4d4d4d;stroke:#666;stroke-miterlimit:10;stroke-width:4px"/><line x1="1852.98" y1="405.53" x2="1875.53" y2="405.55" style="fill:#4d4d4d;stroke:#666;stroke-miterlimit:10;stroke-width:4px"/><line x1="1852.98" y1="225.93" x2="1875.53" y2="225.95" style="fill:#4d4d4d;stroke:#666;stroke-miterlimit:10;stroke-width:4px"/><line x1="1852.98" y1="248.65" x2="1875.53" y2="248.67" style="fill:#4d4d4d;stroke:#666;stroke-miterlimit:10;stroke-width:4px"/><line x1="1852.98" y1="270.29" x2="1875.53" y2="270.31" style="fill:#4d4d4d;stroke:#666;stroke-miterlimit:10;stroke-width:4px"/><line x1="1852.98" y1="293.01" x2="1875.53" y2="293.03" style="fill:#4d4d4d;stroke:#666;stroke-miterlimit:10;stroke-width:4px"/><line x1="1852.98" y1="315.73" x2="1875.53" y2="315.75" style="fill:#4d4d4d;stroke:#666;stroke-miterlimit:10;stroke-width:4px"/><line x1="1852.98" y1="338.45" x2="1875.53" y2="338.47" style="fill:#4d4d4d;stroke:#666;stroke-miterlimit:10;stroke-width:4px"/><line x1="1852.98" y1="361.17" x2="1875.53" y2="361.19" style="fill:#4d4d4d;stroke:#666;stroke-miterlimit:10;stroke-width:4px"/><line x1="1852.98" y1="382.81" x2="1875.53" y2="382.83" style="fill:#4d4d4d;stroke:#666;stroke-miterlimit:10;stroke-width:4px"/></g><ellipse cx="1816.81" cy="244.9" rx="18.58" ry="18.73" style="fill:#999;stroke:#666;stroke-miterlimit:10;stroke-width:4px"/><line x1="350.31" y1="679.55" x2="433.65" y2="679.81" style="fill:none;stroke:gray;stroke-miterlimit:10;stroke-width:20px"/><path d="M494,680c-28.43,10.45-63.72,28.32-85.62,47.29l17.35-47.5-17.05-47.61C430.46,651.29,465.64,669.38,494,680Z" style="fill:gray"/><rect x="577" y="713" width="196" height="114" style="fill:none;stroke:#f7941e;stroke-linecap:round;stroke-linejoin:round;stroke-width:4px"/><rect x="577" y="713" width="196" height="114" style="fill:url(#linear-gradient-3)"/><line x1="427" y1="539" x2="675" y2="539" style="fill:none;stroke:#585858;stroke-linecap:round;stroke-linejoin:round;stroke-width:8px"/><line x1="675" y1="539" x2="675" y2="691.97" style="fill:none;stroke:#585858;stroke-linecap:round;stroke-linejoin:round;stroke-width:8px"/><polygon points="699.3 688.71 650.7 688.71 675 713 699.3 688.71" style="fill:#585858"/><polygon points="625.69 539.59 488.81 460.56 488.81 618.62 625.69 539.59" style="fill:none;stroke:#00aeef;stroke-linecap:round;stroke-linejoin:round;stroke-width:4px"/><polygon points="625.69 539.59 488.81 460.56 488.81 618.62 625.69 539.59" style="fill:url(#linear-gradient-4)"/><line x1="781.65" y1="685.48" x2="864.98" y2="685.74" style="fill:none;stroke:gray;stroke-miterlimit:10;stroke-width:20px"/><path d="M925.34,685.93c-28.43,10.44-63.73,28.31-85.63,47.29l17.36-47.51L840,638.11C861.79,657.22,897,675.31,925.34,685.93Z" style="fill:gray"/><line x1="1431.65" y1="701.48" x2="1514.98" y2="701.74" style="fill:none;stroke:gray;stroke-miterlimit:10;stroke-width:20px"/><path d="M1575.34,701.93c-28.43,10.44-63.73,28.31-85.63,47.29l17.36-47.51L1490,654.11C1511.79,673.22,1547,691.31,1575.34,701.93Z" style="fill:gray"/></svg>