<svg id="Layer_1" data-name="Layer 1" xmlns="http://www.w3.org/2000/svg" xmlns:xlink="http://www.w3.org/1999/xlink" viewBox="0 0 1920 1080"><defs><linearGradient id="linear-gradient" x1="181.75" y1="1418.93" x2="164.6" y2="1363.55" gradientTransform="translate(0 -1048)" gradientUnits="userSpaceOnUse"><stop offset="0" stop-color="#512"/><stop offset="0.23" stop-color="#523"/><stop offset="0.36" stop-color="#534"/><stop offset="0.51" stop-color="#645"/><stop offset="0.66" stop-color="#568"/><stop offset="0.84" stop-color="#29d"/></linearGradient><linearGradient id="linear-gradient-2" x1="318.88" y1="673.32" x2="128.42" y2="720.09" gradientTransform="matrix(1, 0, 0, -1, 0, 1082)" gradientUnits="userSpaceOnUse"><stop offset="0.08" stop-color="#c33"/><stop offset="0.19" stop-color="#de5239"/><stop offset="0.31" stop-color="#f06e3e"/><stop offset="0.42" stop-color="#fa8042"/><stop offset="0.5" stop-color="#fe8643"/><stop offset="0.58" stop-color="#fa7f42"/><stop offset="0.7" stop-color="#ef6c3e"/><stop offset="0.83" stop-color="#dc4c37"/><stop offset="0.92" stop-color="#cf3633"/></linearGradient></defs><path d="M10,935.47a18,18,0,0,0,17.84,18.2H322.16A18,18,0,0,0,340,935.47V562.28H10Z" style="fill:#4d4d4d;stroke:#585858;stroke-miterlimit:10"/><path d="M322.16,529.29H27.84A18,18,0,0,0,10,547.49v15.17H340V547.49A18,18,0,0,0,322.16,529.29Z" style="fill:#ccc;stroke:#585858;stroke-miterlimit:10"/><ellipse cx="261.96" cy="546.73" rx="7.43" ry="7.59" style="fill:#d7df21;stroke:#585858;stroke-miterlimit:10"/><ellipse cx="319.93" cy="546.73" rx="7.43" ry="7.59" style="fill:#f7941e;stroke:#585858;stroke-miterlimit:10"/><ellipse cx="290.95" cy="546.73" rx="7.43" ry="7.59" style="fill:#00aeef;stroke:#585858;stroke-miterlimit:10"/><path d="M22.64,591.1H34.53A7.51,7.51,0,0,1,42,598.69h0a7.51,7.51,0,0,1-7.43,7.58H22.64a7.51,7.51,0,0,1-7.44-7.58h0A7.52,7.52,0,0,1,22.64,591.1Z" style="fill:#f2f2f2"/><path d="M22.64,613.86H34.53A7.51,7.51,0,0,1,42,621.44h0A7.51,7.51,0,0,1,34.53,629H22.64a7.52,7.52,0,0,1-7.44-7.59h0A7.51,7.51,0,0,1,22.64,613.86Z" style="fill:#f2f2f2"/><path d="M22.64,636.61H34.53A7.51,7.51,0,0,1,42,644.2h0a7.51,7.51,0,0,1-7.43,7.58H22.64a7.51,7.51,0,0,1-7.44-7.58h0A7.52,7.52,0,0,1,22.64,636.61Z" style="fill:#f2f2f2"/><path d="M22.64,659.37H34.53A7.51,7.51,0,0,1,42,667h0a7.51,7.51,0,0,1-7.43,7.58H22.64A7.51,7.51,0,0,1,15.2,667h0A7.52,7.52,0,0,1,22.64,659.37Z" style="fill:#f2f2f2"/><path d="M22.64,682.13H34.53A7.51,7.51,0,0,1,42,689.71h0a7.51,7.51,0,0,1-7.43,7.59H22.64a7.52,7.52,0,0,1-7.44-7.59h0A7.51,7.51,0,0,1,22.64,682.13Z" style="fill:#f2f2f2"/><path d="M22.64,704.88H34.53A7.51,7.51,0,0,1,42,712.47h0a7.51,7.51,0,0,1-7.43,7.58H22.64a7.51,7.51,0,0,1-7.44-7.58h0A7.52,7.52,0,0,1,22.64,704.88Z" style="fill:#f2f2f2"/><path d="M22.64,727.64H34.53A7.51,7.51,0,0,1,42,735.22h0a7.51,7.51,0,0,1-7.43,7.59H22.64a7.52,7.52,0,0,1-7.44-7.59h0A7.51,7.51,0,0,1,22.64,727.64Z" style="fill:#f2f2f2"/><path d="M22.64,750.39H34.53A7.51,7.51,0,0,1,42,758h0a7.51,7.51,0,0,1-7.43,7.58H22.64A7.51,7.51,0,0,1,15.2,758h0A7.52,7.52,0,0,1,22.64,750.39Z" style="fill:#f2f2f2"/><path d="M22.64,773.15H34.53A7.51,7.51,0,0,1,42,780.73h0a7.51,7.51,0,0,1-7.43,7.59H22.64a7.52,7.52,0,0,1-7.44-7.59h0A7.51,7.51,0,0,1,22.64,773.15Z" style="fill:#f2f2f2"/><path d="M22.64,795.9H34.53A7.51,7.51,0,0,1,42,803.49h0a7.51,7.51,0,0,1-7.43,7.58H22.64a7.51,7.51,0,0,1-7.44-7.58h0A7.52,7.52,0,0,1,22.64,795.9Z" style="fill:#f2f2f2"/><path d="M22.64,818.66H34.53A7.51,7.51,0,0,1,42,826.24h0a7.51,7.51,0,0,1-7.43,7.59H22.64a7.52,7.52,0,0,1-7.44-7.59h0A7.51,7.51,0,0,1,22.64,818.66Z" style="fill:#f2f2f2"/><path d="M22.64,841.41H34.53A7.51,7.51,0,0,1,42,849h0a7.51,7.51,0,0,1-7.43,7.58H22.64A7.51,7.51,0,0,1,15.2,849h0A7.52,7.52,0,0,1,22.64,841.41Z" style="fill:#f2f2f2"/><path d="M22.64,864.17H34.53A7.51,7.51,0,0,1,42,871.75h0a7.51,7.51,0,0,1-7.43,7.59H22.64a7.52,7.52,0,0,1-7.44-7.59h0A7.51,7.51,0,0,1,22.64,864.17Z" style="fill:#f2f2f2"/><path d="M22.64,886.92H34.53A7.51,7.51,0,0,1,42,894.51h0a7.51,7.51,0,0,1-7.43,7.58H22.64a7.51,7.51,0,0,1-7.44-7.58h0A7.52,7.52,0,0,1,22.64,886.92Z" style="fill:#f2f2f2"/><path d="M22.64,909.68H34.53A7.51,7.51,0,0,1,42,917.26h0a7.51,7.51,0,0,1-7.43,7.59H22.64a7.52,7.52,0,0,1-7.44-7.59h0A7.51,7.51,0,0,1,22.64,909.68Z" style="fill:#f2f2f2"/><path d="M65.74,590.72H125.2a7.52,7.52,0,0,1,7.44,7.59h0a7.51,7.51,0,0,1-7.44,7.58H65.74a7.51,7.51,0,0,1-7.43-7.58h0A7.51,7.51,0,0,1,65.74,590.72Z" style="fill:#d7df21"/><path d="M65.74,613.48H125.2a7.52,7.52,0,0,1,7.44,7.59h0a7.51,7.51,0,0,1-7.44,7.58H65.74a7.51,7.51,0,0,1-7.43-7.58h0A7.51,7.51,0,0,1,65.74,613.48Z" style="fill:#f7941e"/><path d="M94,636.24h59.46a7.51,7.51,0,0,1,7.43,7.58h0a7.51,7.51,0,0,1-7.43,7.59H94a7.52,7.52,0,0,1-7.44-7.59h0A7.51,7.51,0,0,1,94,636.24Z" style="fill:#f6d06c"/><path d="M94,659h59.46a7.51,7.51,0,0,1,7.43,7.59h0a7.51,7.51,0,0,1-7.43,7.58H94a7.51,7.51,0,0,1-7.44-7.58h0A7.52,7.52,0,0,1,94,659Z" style="fill:#f7941e"/><path d="M138.58,683.26H257.5a7.51,7.51,0,0,1,7.43,7.59h0a7.51,7.51,0,0,1-7.43,7.58H138.58a7.51,7.51,0,0,1-7.43-7.58h0A7.51,7.51,0,0,1,138.58,683.26Z" style="fill:#f6d06c"/><path d="M59.8,704.5h59.46a7.51,7.51,0,0,1,7.43,7.59h0a7.51,7.51,0,0,1-7.43,7.58H59.8a7.51,7.51,0,0,1-7.44-7.58h0A7.52,7.52,0,0,1,59.8,704.5Z" style="fill:#1a80c9"/><path d="M59.8,728.77h59.46a7.51,7.51,0,0,1,7.43,7.59h0a7.51,7.51,0,0,1-7.43,7.58H59.8a7.51,7.51,0,0,1-7.44-7.58h0A7.52,7.52,0,0,1,59.8,728.77Z" style="fill:#f6d06c"/><path d="M146,750h59.46a7.52,7.52,0,0,1,7.44,7.59h0a7.51,7.51,0,0,1-7.44,7.58H146a7.51,7.51,0,0,1-7.43-7.58h0A7.51,7.51,0,0,1,146,750Z" style="fill:#1a80c9"/><path d="M94,772.77h59.46a7.51,7.51,0,0,1,7.43,7.58h0a7.51,7.51,0,0,1-7.43,7.59H94a7.52,7.52,0,0,1-7.44-7.59h0A7.51,7.51,0,0,1,94,772.77Z" style="fill:#f7941e"/><path d="M59.8,795.52h59.46a7.51,7.51,0,0,1,7.43,7.59h0a7.51,7.51,0,0,1-7.43,7.58H59.8a7.51,7.51,0,0,1-7.44-7.58h0A7.52,7.52,0,0,1,59.8,795.52Z" style="fill:#6dcff6"/><path d="M59.8,818.28h59.46a7.51,7.51,0,0,1,7.43,7.58h0a7.51,7.51,0,0,1-7.43,7.59H59.8a7.52,7.52,0,0,1-7.44-7.59h0A7.51,7.51,0,0,1,59.8,818.28Z" style="fill:#d7df21"/><path d="M59.8,841h59.46a7.51,7.51,0,0,1,7.43,7.59h0a7.51,7.51,0,0,1-7.43,7.58H59.8a7.51,7.51,0,0,1-7.44-7.58h0A7.52,7.52,0,0,1,59.8,841Z" style="fill:#f6d06c"/><path d="M59.8,863.79h59.46a7.51,7.51,0,0,1,7.43,7.58h0a7.51,7.51,0,0,1-7.43,7.59H59.8a7.52,7.52,0,0,1-7.44-7.59h0A7.51,7.51,0,0,1,59.8,863.79Z" style="fill:#f7941e"/><path d="M94,886.54h59.46a7.51,7.51,0,0,1,7.43,7.59h0a7.51,7.51,0,0,1-7.43,7.58H94a7.51,7.51,0,0,1-7.44-7.58h0A7.52,7.52,0,0,1,94,886.54Z" style="fill:#1a80c9"/><path d="M59.8,909.3h59.46a7.51,7.51,0,0,1,7.43,7.58h0a7.51,7.51,0,0,1-7.43,7.59H59.8a7.52,7.52,0,0,1-7.44-7.59h0A7.51,7.51,0,0,1,59.8,909.3Z" style="fill:#f7941e"/><path d="M147.5,590.72H281.28a7.52,7.52,0,0,1,7.44,7.59h0a7.51,7.51,0,0,1-7.44,7.58H147.5a7.51,7.51,0,0,1-7.43-7.58h0A7.51,7.51,0,0,1,147.5,590.72Z" style="fill:#1a80c9"/><path d="M175.74,772.77H309.53a7.51,7.51,0,0,1,7.43,7.58h0a7.51,7.51,0,0,1-7.43,7.59H175.74a7.51,7.51,0,0,1-7.43-7.59h0A7.51,7.51,0,0,1,175.74,772.77Z" style="fill:#f6d06c"/><path d="M140.07,818.28H273.85a7.5,7.5,0,0,1,7.43,7.58h0a7.51,7.51,0,0,1-7.43,7.59H140.07a7.51,7.51,0,0,1-7.43-7.59h0A7.5,7.5,0,0,1,140.07,818.28Z" style="fill:#f7941e"/><path d="M140.07,909.3h89.19a7.51,7.51,0,0,1,7.43,7.58h0a7.51,7.51,0,0,1-7.43,7.59H140.07a7.51,7.51,0,0,1-7.43-7.59h0A7.51,7.51,0,0,1,140.07,909.3Z" style="fill:#f6d06c"/><path d="M94,750h29.73a7.51,7.51,0,0,1,7.43,7.59h0a7.51,7.51,0,0,1-7.43,7.58H94a7.51,7.51,0,0,1-7.44-7.58h0A7.52,7.52,0,0,1,94,750Z" style="fill:#d7df21"/><path d="M140.07,842.55h59.46a7.51,7.51,0,0,1,7.43,7.59h0a7.51,7.51,0,0,1-7.43,7.58H140.07a7.51,7.51,0,0,1-7.43-7.58h0A7.51,7.51,0,0,1,140.07,842.55Z" style="fill:#6dcff6"/><path d="M138.58,704.5H198a7.51,7.51,0,0,1,7.43,7.59h0a7.5,7.5,0,0,1-7.43,7.58H138.58a7.51,7.51,0,0,1-7.43-7.58h0A7.51,7.51,0,0,1,138.58,704.5Z" style="fill:#f7941e"/><path d="M172.77,659H291.69a7.51,7.51,0,0,1,7.43,7.59h0a7.51,7.51,0,0,1-7.43,7.58H172.77a7.51,7.51,0,0,1-7.43-7.58h0A7.51,7.51,0,0,1,172.77,659Z" style="fill:#6dcff6"/><path d="M172.77,636.24H262a7.51,7.51,0,0,1,7.43,7.58h0a7.51,7.51,0,0,1-7.43,7.59H172.77a7.51,7.51,0,0,1-7.43-7.59h0A7.51,7.51,0,0,1,172.77,636.24Z" style="fill:#6dcff6"/><path d="M138.58,728.77h29.73a7.51,7.51,0,0,1,7.43,7.59h0a7.5,7.5,0,0,1-7.43,7.58H138.58a7.51,7.51,0,0,1-7.43-7.58h0A7.51,7.51,0,0,1,138.58,728.77Z" style="fill:#d7df21"/><path d="M140.07,795.52H259a7.51,7.51,0,0,1,7.43,7.59h0a7.51,7.51,0,0,1-7.43,7.58H140.07a7.5,7.5,0,0,1-7.43-7.58h0A7.51,7.51,0,0,1,140.07,795.52Z" style="fill:#1a80c9"/><path d="M138.58,863.79H272.36a7.51,7.51,0,0,1,7.44,7.58h0a7.52,7.52,0,0,1-7.44,7.59H138.58a7.51,7.51,0,0,1-7.43-7.59h0A7.51,7.51,0,0,1,138.58,863.79Z" style="fill:#6dcff6"/><path d="M175.74,886.54H235.2a7.52,7.52,0,0,1,7.44,7.59h0a7.51,7.51,0,0,1-7.44,7.58H175.74a7.51,7.51,0,0,1-7.43-7.58h0A7.51,7.51,0,0,1,175.74,886.54Z" style="fill:#d7df21"/><path d="M26.47,392.54,111,361.16a209.69,209.69,0,0,1,28.86-28.75c7-3.41,20.16-1.56,44.24-29,23.35-26.8,30.77-49.7,41.7-49.7,17.29,0,30,34.3,49.33,86.25a1072.43,1072.43,0,0,0,48.38,116.64c-20.15-17.25-37.34-35.86-57-35.37-18.25.39-38.51,20.27-60.69,45.8-17.61,20.46-41,34.5-50.07,34.2,0,0-23.56-61.19-43.29-71.13A30.16,30.16,0,0,0,87.15,432L26.47,392.44Z" style="fill:#49d"/><path d="M215.32,260.69c-7.11,8.77-15.71,24.85-31.2,42.68C160,330.85,147,329,139.88,332.41A199.6,199.6,0,0,0,111,361.16l35,23.48c29.7-37.22,45.62-77.57,58-103.68A128.52,128.52,0,0,1,215.32,260.69Z" style="fill:url(#linear-gradient)"/><path d="M225.93,253.67C202.8,253.67,187,365.54,101.58,428c24-3.61,44.77,51.06,54.32,73.18,42.44-6.62,76.39-81.17,110.66-80,19.63.68,36.82,18.12,57,35.37C277.49,367.69,256,253.67,225.93,253.67Z" style="fill:url(#linear-gradient-2)"/><path d="M1239.69,744.13a108.57,108.57,0,0,0-87.32-79.82,108.51,108.51,0,0,0-60.51-109.54,109.43,109.43,0,0,0-47.34-10.83,108.63,108.63,0,0,0-83.39,39.2A108.46,108.46,0,0,0,788.2,630.82c-1,0-2,0-3,0a108.45,108.45,0,0,0-47.18,206,109.42,109.42,0,0,0,47.34,10.82,108.15,108.15,0,0,0,15.77-1.15A108.78,108.78,0,0,0,846.72,888a109.42,109.42,0,0,0,47.34,10.82h0a108.63,108.63,0,0,0,27.24-3.47c1,1.41,2,2.79,3,4.09a107.16,107.16,0,0,0,38.88,31.76,109.43,109.43,0,0,0,47.34,10.83,108.49,108.49,0,0,0,99.38-65.22,108.12,108.12,0,0,0,90.65-19.41,108.56,108.56,0,0,0,39.16-113.3Zm-3.28,40.73a102.64,102.64,0,0,1-101.65,89.06,103.55,103.55,0,0,1-25.87-3.29l-2.46-.64-1,2.35A102.63,102.63,0,0,1,928.89,896c-1.33-1.73-2.65-3.59-3.94-5.52l-1.17-1.76-2,.57a102.22,102.22,0,0,1-27.69,3.81h0a102.78,102.78,0,0,1-88.89-51.18l-1-1.73-2,.32a102.64,102.64,0,1,1-16.94-203.88c1.63,0,3.28,0,4.9.11l2.23.11.67-2.13a102.65,102.65,0,0,1,166.5-45.21l2.31,2.08,1.92-2.44a102.8,102.8,0,0,1,18.5-18.25,102.62,102.62,0,0,1,164,95.5l-.39,2.88,2.87.39a102.64,102.64,0,0,1,87.66,115.24Z"/><text transform="translate(896.78 718.05)" style="font-size:72px;font-family:SourceSansPro-Regular, Source Sans Pro">HDL<tspan x="-27.29" y="86.4">Coder</tspan></text><path d="M1580,935.7a17.91,17.91,0,0,0,17.84,18h294.32a17.91,17.91,0,0,0,17.84-18V567.17H1580Z" style="fill:#4d4d4d;stroke:#585858;stroke-miterlimit:10"/><path d="M1892.16,534.58H1597.84a17.91,17.91,0,0,0-17.84,18v15h330v-15A17.91,17.91,0,0,0,1892.16,534.58Z" style="fill:#ccc;stroke:#585858;stroke-miterlimit:10"/><ellipse cx="1831.96" cy="551.81" rx="7.43" ry="7.49" style="fill:#d7df21;stroke:#585858;stroke-miterlimit:10"/><ellipse cx="1889.93" cy="551.81" rx="7.43" ry="7.49" style="fill:#f7941e;stroke:#585858;stroke-miterlimit:10"/><ellipse cx="1860.95" cy="551.81" rx="7.43" ry="7.49" style="fill:#00aeef;stroke:#585858;stroke-miterlimit:10"/><path d="M1592.64,595.63h11.89a7.46,7.46,0,0,1,7.43,7.49h0a7.46,7.46,0,0,1-7.43,7.49h-11.89a7.46,7.46,0,0,1-7.44-7.49h0A7.46,7.46,0,0,1,1592.64,595.63Z" style="fill:#f2f2f2"/><path d="M1592.64,618.1h11.89a7.47,7.47,0,0,1,7.43,7.49h0a7.46,7.46,0,0,1-7.43,7.49h-11.89a7.46,7.46,0,0,1-7.44-7.49h0A7.47,7.47,0,0,1,1592.64,618.1Z" style="fill:#f2f2f2"/><path d="M1592.64,640.57h11.89a7.47,7.47,0,0,1,7.43,7.49h0a7.46,7.46,0,0,1-7.43,7.49h-11.89a7.46,7.46,0,0,1-7.44-7.49h0A7.47,7.47,0,0,1,1592.64,640.57Z" style="fill:#f2f2f2"/><path d="M1592.64,663h11.89a7.47,7.47,0,0,1,7.43,7.49h0a7.46,7.46,0,0,1-7.43,7.49h-11.89a7.46,7.46,0,0,1-7.44-7.49h0A7.47,7.47,0,0,1,1592.64,663Z" style="fill:#f2f2f2"/><path d="M1592.64,685.52h11.89A7.46,7.46,0,0,1,1612,693h0a7.47,7.47,0,0,1-7.43,7.49h-11.89a7.47,7.47,0,0,1-7.44-7.49h0A7.46,7.46,0,0,1,1592.64,685.52Z" style="fill:#f2f2f2"/><path d="M1592.64,708h11.89a7.46,7.46,0,0,1,7.43,7.49h0a7.47,7.47,0,0,1-7.43,7.49h-11.89a7.47,7.47,0,0,1-7.44-7.49h0A7.46,7.46,0,0,1,1592.64,708Z" style="fill:#f2f2f2"/><path d="M1592.64,730.46h11.89A7.46,7.46,0,0,1,1612,738h0a7.46,7.46,0,0,1-7.43,7.49h-11.89a7.46,7.46,0,0,1-7.44-7.49h0A7.46,7.46,0,0,1,1592.64,730.46Z" style="fill:#f2f2f2"/><path d="M1592.64,752.93h11.89a7.46,7.46,0,0,1,7.43,7.49h0a7.46,7.46,0,0,1-7.43,7.49h-11.89a7.46,7.46,0,0,1-7.44-7.49h0A7.46,7.46,0,0,1,1592.64,752.93Z" style="fill:#f2f2f2"/><path d="M1592.64,775.4h11.89a7.46,7.46,0,0,1,7.43,7.49h0a7.46,7.46,0,0,1-7.43,7.49h-11.89a7.46,7.46,0,0,1-7.44-7.49h0A7.46,7.46,0,0,1,1592.64,775.4Z" style="fill:#f2f2f2"/><path d="M1592.64,797.87h11.89a7.47,7.47,0,0,1,7.43,7.49h0a7.46,7.46,0,0,1-7.43,7.49h-11.89a7.46,7.46,0,0,1-7.44-7.49h0A7.47,7.47,0,0,1,1592.64,797.87Z" style="fill:#f2f2f2"/><path d="M1592.64,820.34h11.89a7.47,7.47,0,0,1,7.43,7.49h0a7.46,7.46,0,0,1-7.43,7.49h-11.89a7.46,7.46,0,0,1-7.44-7.49h0A7.47,7.47,0,0,1,1592.64,820.34Z" style="fill:#f2f2f2"/><path d="M1592.64,842.81h11.89a7.47,7.47,0,0,1,7.43,7.49h0a7.46,7.46,0,0,1-7.43,7.49h-11.89a7.46,7.46,0,0,1-7.44-7.49h0A7.47,7.47,0,0,1,1592.64,842.81Z" style="fill:#f2f2f2"/><path d="M1592.64,865.29h11.89a7.46,7.46,0,0,1,7.43,7.49h0a7.47,7.47,0,0,1-7.43,7.49h-11.89a7.47,7.47,0,0,1-7.44-7.49h0A7.46,7.46,0,0,1,1592.64,865.29Z" style="fill:#f2f2f2"/><path d="M1592.64,887.76h11.89a7.46,7.46,0,0,1,7.43,7.49h0a7.47,7.47,0,0,1-7.43,7.49h-11.89a7.47,7.47,0,0,1-7.44-7.49h0A7.46,7.46,0,0,1,1592.64,887.76Z" style="fill:#f2f2f2"/><path d="M1592.64,910.23h11.89a7.46,7.46,0,0,1,7.43,7.49h0a7.47,7.47,0,0,1-7.43,7.49h-11.89a7.47,7.47,0,0,1-7.44-7.49h0A7.46,7.46,0,0,1,1592.64,910.23Z" style="fill:#f2f2f2"/><path d="M1635.74,595.26h59.46a7.46,7.46,0,0,1,7.44,7.49h0a7.47,7.47,0,0,1-7.44,7.49h-59.46a7.47,7.47,0,0,1-7.43-7.49h0A7.46,7.46,0,0,1,1635.74,595.26Z" style="fill:#d7df21"/><path d="M1635.74,617.73h59.46a7.46,7.46,0,0,1,7.44,7.49h0a7.47,7.47,0,0,1-7.44,7.49h-59.46a7.47,7.47,0,0,1-7.43-7.49h0A7.46,7.46,0,0,1,1635.74,617.73Z" style="fill:#f7941e"/><path d="M1664,640.2h59.46a7.46,7.46,0,0,1,7.43,7.49h0a7.46,7.46,0,0,1-7.43,7.49H1664a7.46,7.46,0,0,1-7.44-7.49h0A7.46,7.46,0,0,1,1664,640.2Z" style="fill:#f6d06c"/><path d="M1664,662.67h59.46a7.46,7.46,0,0,1,7.43,7.49h0a7.46,7.46,0,0,1-7.43,7.49H1664a7.46,7.46,0,0,1-7.44-7.49h0A7.46,7.46,0,0,1,1664,662.67Z" style="fill:#f7941e"/><path d="M1708.58,686.64H1827.5a7.46,7.46,0,0,1,7.43,7.49h0a7.46,7.46,0,0,1-7.43,7.49H1708.58a7.46,7.46,0,0,1-7.43-7.49h0A7.46,7.46,0,0,1,1708.58,686.64Z" style="fill:#f6d06c"/><path d="M1629.8,707.61h59.46a7.47,7.47,0,0,1,7.43,7.49h0a7.46,7.46,0,0,1-7.43,7.49H1629.8a7.46,7.46,0,0,1-7.44-7.49h0A7.47,7.47,0,0,1,1629.8,707.61Z" style="fill:#1a80c9"/><path d="M1629.8,731.58h59.46a7.46,7.46,0,0,1,7.43,7.49h0a7.46,7.46,0,0,1-7.43,7.49H1629.8a7.46,7.46,0,0,1-7.44-7.49h0A7.46,7.46,0,0,1,1629.8,731.58Z" style="fill:#f6d06c"/><path d="M1716,752.55h59.46a7.47,7.47,0,0,1,7.44,7.49h0a7.47,7.47,0,0,1-7.44,7.5H1716a7.47,7.47,0,0,1-7.43-7.5h0A7.47,7.47,0,0,1,1716,752.55Z" style="fill:#1a80c9"/><path d="M1664,775h59.46a7.46,7.46,0,0,1,7.43,7.49h0a7.47,7.47,0,0,1-7.43,7.49H1664a7.47,7.47,0,0,1-7.44-7.49h0A7.46,7.46,0,0,1,1664,775Z" style="fill:#f7941e"/><path d="M1629.8,797.5h59.46a7.46,7.46,0,0,1,7.43,7.49h0a7.47,7.47,0,0,1-7.43,7.49H1629.8a7.47,7.47,0,0,1-7.44-7.49h0A7.46,7.46,0,0,1,1629.8,797.5Z" style="fill:#6dcff6"/><path d="M1629.8,820h59.46a7.46,7.46,0,0,1,7.43,7.49h0a7.46,7.46,0,0,1-7.43,7.49H1629.8a7.46,7.46,0,0,1-7.44-7.49h0A7.46,7.46,0,0,1,1629.8,820Z" style="fill:#d7df21"/><path d="M1629.8,842.44h59.46a7.46,7.46,0,0,1,7.43,7.49h0a7.46,7.46,0,0,1-7.43,7.49H1629.8a7.46,7.46,0,0,1-7.44-7.49h0A7.46,7.46,0,0,1,1629.8,842.44Z" style="fill:#f6d06c"/><path d="M1629.8,864.91h59.46a7.46,7.46,0,0,1,7.43,7.49h0a7.46,7.46,0,0,1-7.43,7.49H1629.8a7.46,7.46,0,0,1-7.44-7.49h0A7.46,7.46,0,0,1,1629.8,864.91Z" style="fill:#f7941e"/><path d="M1664,887.38h59.46a7.47,7.47,0,0,1,7.43,7.49h0a7.46,7.46,0,0,1-7.43,7.49H1664a7.46,7.46,0,0,1-7.44-7.49h0A7.47,7.47,0,0,1,1664,887.38Z" style="fill:#1a80c9"/><path d="M1629.8,909.85h59.46a7.47,7.47,0,0,1,7.43,7.49h0a7.46,7.46,0,0,1-7.43,7.49H1629.8a7.46,7.46,0,0,1-7.44-7.49h0A7.47,7.47,0,0,1,1629.8,909.85Z" style="fill:#f7941e"/><path d="M1717.5,595.26h133.78a7.46,7.46,0,0,1,7.44,7.49h0a7.47,7.47,0,0,1-7.44,7.49H1717.5a7.47,7.47,0,0,1-7.43-7.49h0A7.46,7.46,0,0,1,1717.5,595.26Z" style="fill:#1a80c9"/><path d="M1745.74,775h133.79a7.46,7.46,0,0,1,7.43,7.49h0a7.47,7.47,0,0,1-7.43,7.49H1745.74a7.47,7.47,0,0,1-7.43-7.49h0A7.46,7.46,0,0,1,1745.74,775Z" style="fill:#f6d06c"/><path d="M1710.07,820h133.78a7.45,7.45,0,0,1,7.43,7.49h0a7.45,7.45,0,0,1-7.43,7.49H1710.07a7.45,7.45,0,0,1-7.43-7.49h0A7.45,7.45,0,0,1,1710.07,820Z" style="fill:#f7941e"/><path d="M1710.07,909.85h89.19a7.47,7.47,0,0,1,7.43,7.49h0a7.46,7.46,0,0,1-7.43,7.49h-89.19a7.45,7.45,0,0,1-7.43-7.49h0A7.46,7.46,0,0,1,1710.07,909.85Z" style="fill:#f6d06c"/><path d="M1664,752.55h29.73a7.47,7.47,0,0,1,7.43,7.49h0a7.47,7.47,0,0,1-7.43,7.5H1664a7.47,7.47,0,0,1-7.44-7.5h0A7.47,7.47,0,0,1,1664,752.55Z" style="fill:#d7df21"/><path d="M1710.07,843.94h59.46a7.46,7.46,0,0,1,7.43,7.49h0a7.47,7.47,0,0,1-7.43,7.49h-59.46a7.46,7.46,0,0,1-7.43-7.49h0A7.45,7.45,0,0,1,1710.07,843.94Z" style="fill:#6dcff6"/><path d="M1708.58,707.61H1768a7.46,7.46,0,0,1,7.43,7.49h0a7.45,7.45,0,0,1-7.43,7.49h-59.46a7.46,7.46,0,0,1-7.43-7.49h0A7.47,7.47,0,0,1,1708.58,707.61Z" style="fill:#f7941e"/><path d="M1742.77,662.67h118.92a7.46,7.46,0,0,1,7.43,7.49h0a7.46,7.46,0,0,1-7.43,7.49H1742.77a7.46,7.46,0,0,1-7.43-7.49h0A7.46,7.46,0,0,1,1742.77,662.67Z" style="fill:#6dcff6"/><path d="M1742.77,640.2H1832a7.46,7.46,0,0,1,7.43,7.49h0a7.46,7.46,0,0,1-7.43,7.49h-89.19a7.46,7.46,0,0,1-7.43-7.49h0A7.46,7.46,0,0,1,1742.77,640.2Z" style="fill:#6dcff6"/><path d="M1708.58,731.58h29.73a7.45,7.45,0,0,1,7.43,7.49h0a7.45,7.45,0,0,1-7.43,7.49h-29.73a7.46,7.46,0,0,1-7.43-7.49h0A7.46,7.46,0,0,1,1708.58,731.58Z" style="fill:#d7df21"/><path d="M1710.07,797.5H1829a7.46,7.46,0,0,1,7.43,7.49h0a7.47,7.47,0,0,1-7.43,7.49H1710.07a7.46,7.46,0,0,1-7.43-7.49h0A7.45,7.45,0,0,1,1710.07,797.5Z" style="fill:#1a80c9"/><path d="M1708.58,864.91h133.78a7.46,7.46,0,0,1,7.44,7.49h0a7.46,7.46,0,0,1-7.44,7.49H1708.58a7.46,7.46,0,0,1-7.43-7.49h0A7.46,7.46,0,0,1,1708.58,864.91Z" style="fill:#6dcff6"/><path d="M1745.74,887.38h59.46a7.47,7.47,0,0,1,7.44,7.49h0a7.46,7.46,0,0,1-7.44,7.49h-59.46a7.46,7.46,0,0,1-7.43-7.49h0A7.47,7.47,0,0,1,1745.74,887.38Z" style="fill:#d7df21"/><g id="IC_outline" data-name="IC outline"><rect x="1644.95" y="276.99" width="206.13" height="207.73" rx="11.64" style="fill:#4d4d4d;stroke:#666;stroke-miterlimit:10;stroke-width:4px"/><line x1="1646.48" y1="290.46" x2="1623.93" y2="290.44" style="fill:#4d4d4d;stroke:#666;stroke-miterlimit:10;stroke-width:4px"/><line x1="1646.48" y1="471.14" x2="1623.93" y2="471.12" style="fill:#4d4d4d;stroke:#666;stroke-miterlimit:10;stroke-width:4px"/><line x1="1646.48" y1="448.42" x2="1623.93" y2="448.4" style="fill:#4d4d4d;stroke:#666;stroke-miterlimit:10;stroke-width:4px"/><line x1="1646.48" y1="425.7" x2="1623.93" y2="425.68" style="fill:#4d4d4d;stroke:#666;stroke-miterlimit:10;stroke-width:4px"/><line x1="1646.48" y1="402.98" x2="1623.93" y2="402.96" style="fill:#4d4d4d;stroke:#666;stroke-miterlimit:10;stroke-width:4px"/><line x1="1646.48" y1="381.34" x2="1623.93" y2="381.32" style="fill:#4d4d4d;stroke:#666;stroke-miterlimit:10;stroke-width:4px"/><line x1="1646.48" y1="358.62" x2="1623.93" y2="358.6" style="fill:#4d4d4d;stroke:#666;stroke-miterlimit:10;stroke-width:4px"/><line x1="1646.48" y1="335.9" x2="1623.93" y2="335.88" style="fill:#4d4d4d;stroke:#666;stroke-miterlimit:10;stroke-width:4px"/><line x1="1646.48" y1="313.18" x2="1623.93" y2="313.16" style="fill:#4d4d4d;stroke:#666;stroke-miterlimit:10;stroke-width:4px"/><line x1="1837.58" y1="275.31" x2="1837.48" y2="253.67" style="fill:#4d4d4d;stroke:#666;stroke-miterlimit:10;stroke-width:4px"/><line x1="1659.36" y1="276.39" x2="1659.27" y2="253.67" style="fill:#4d4d4d;stroke:#666;stroke-miterlimit:10;stroke-width:4px"/><line x1="1680.83" y1="276.39" x2="1680.74" y2="253.67" style="fill:#4d4d4d;stroke:#666;stroke-miterlimit:10;stroke-width:4px"/><line x1="1703.38" y1="276.39" x2="1703.28" y2="253.67" style="fill:#4d4d4d;stroke:#666;stroke-miterlimit:10;stroke-width:4px"/><line x1="1725.92" y1="276.39" x2="1725.83" y2="253.67" style="fill:#4d4d4d;stroke:#666;stroke-miterlimit:10;stroke-width:4px"/><line x1="1748.47" y1="276.39" x2="1748.37" y2="253.67" style="fill:#4d4d4d;stroke:#666;stroke-miterlimit:10;stroke-width:4px"/><line x1="1771.01" y1="276.39" x2="1770.92" y2="253.67" style="fill:#4d4d4d;stroke:#666;stroke-miterlimit:10;stroke-width:4px"/><line x1="1792.49" y1="275.31" x2="1792.39" y2="253.67" style="fill:#4d4d4d;stroke:#666;stroke-miterlimit:10;stroke-width:4px"/><line x1="1815.03" y1="275.31" x2="1814.94" y2="253.67" style="fill:#4d4d4d;stroke:#666;stroke-miterlimit:10;stroke-width:4px"/><line x1="1661.51" y1="484.13" x2="1661.49" y2="506.85" style="fill:#4d4d4d;stroke:#666;stroke-miterlimit:10;stroke-width:4px"/><line x1="1839.72" y1="484.13" x2="1839.7" y2="506.85" style="fill:#4d4d4d;stroke:#666;stroke-miterlimit:10;stroke-width:4px"/><line x1="1817.18" y1="484.13" x2="1817.16" y2="506.85" style="fill:#4d4d4d;stroke:#666;stroke-miterlimit:10;stroke-width:4px"/><line x1="1794.63" y1="484.13" x2="1794.61" y2="506.85" style="fill:#4d4d4d;stroke:#666;stroke-miterlimit:10;stroke-width:4px"/><line x1="1773.16" y1="484.13" x2="1773.14" y2="506.85" style="fill:#4d4d4d;stroke:#666;stroke-miterlimit:10;stroke-width:4px"/><line x1="1750.62" y1="484.13" x2="1750.6" y2="506.85" style="fill:#4d4d4d;stroke:#666;stroke-miterlimit:10;stroke-width:4px"/><line x1="1728.07" y1="484.13" x2="1728.05" y2="506.85" style="fill:#4d4d4d;stroke:#666;stroke-miterlimit:10;stroke-width:4px"/><line x1="1705.53" y1="484.13" x2="1705.51" y2="506.85" style="fill:#4d4d4d;stroke:#666;stroke-miterlimit:10;stroke-width:4px"/><line x1="1682.98" y1="484.13" x2="1682.96" y2="506.85" style="fill:#4d4d4d;stroke:#666;stroke-miterlimit:10;stroke-width:4px"/><line x1="1852.61" y1="468.98" x2="1875.15" y2="469" style="fill:#4d4d4d;stroke:#666;stroke-miterlimit:10;stroke-width:4px"/><line x1="1852.61" y1="289.38" x2="1875.15" y2="289.4" style="fill:#4d4d4d;stroke:#666;stroke-miterlimit:10;stroke-width:4px"/><line x1="1852.61" y1="312.1" x2="1875.15" y2="312.12" style="fill:#4d4d4d;stroke:#666;stroke-miterlimit:10;stroke-width:4px"/><line x1="1852.61" y1="333.74" x2="1875.15" y2="333.76" style="fill:#4d4d4d;stroke:#666;stroke-miterlimit:10;stroke-width:4px"/><line x1="1852.61" y1="356.46" x2="1875.15" y2="356.48" style="fill:#4d4d4d;stroke:#666;stroke-miterlimit:10;stroke-width:4px"/><line x1="1852.61" y1="379.18" x2="1875.15" y2="379.2" style="fill:#4d4d4d;stroke:#666;stroke-miterlimit:10;stroke-width:4px"/><line x1="1852.61" y1="401.9" x2="1875.15" y2="401.92" style="fill:#4d4d4d;stroke:#666;stroke-miterlimit:10;stroke-width:4px"/><line x1="1852.61" y1="424.62" x2="1875.15" y2="424.64" style="fill:#4d4d4d;stroke:#666;stroke-miterlimit:10;stroke-width:4px"/><line x1="1852.61" y1="446.26" x2="1875.15" y2="446.28" style="fill:#4d4d4d;stroke:#666;stroke-miterlimit:10;stroke-width:4px"/></g><ellipse cx="1816.43" cy="308.35" rx="18.58" ry="18.73" style="fill:#999;stroke:#666;stroke-miterlimit:10;stroke-width:4px"/><line x1="370.94" y1="743" x2="585.59" y2="743" style="fill:none;stroke:gray;stroke-miterlimit:10;stroke-width:20px"/><path d="M645.94,743c-28.4,10.54-63.63,28.52-85.48,47.56L577.67,743l-17.21-47.55C582.31,714.49,617.54,732.47,645.94,743Z" style="fill:gray"/><line x1="1274.06" y1="743" x2="1488.71" y2="743" style="fill:none;stroke:gray;stroke-miterlimit:10;stroke-width:20px"/><path d="M1549.06,743c-28.4,10.54-63.63,28.52-85.47,47.56l17.2-47.56-17.2-47.55C1485.43,714.49,1520.66,732.47,1549.06,743Z" style="fill:gray"/></svg>